#N canvas 170 64 295 338 10;
#X obj 100 -106 receive~ carrier;
#X obj 100 -25 bp~;
#X obj 139 -76 receive freqBand_1;
#X obj 147 -55 receive Q;
#X obj 86 68 *~;
#X obj 85 95 throw~ summing;
#X text 148 -138 Filterbank and modulation of the carrier;
#X obj 263 -91 receive~ carrier;
#X obj 263 -19 bp~;
#X obj 302 -48 receive Q;
#X obj 249 70 *~;
#X obj 407 -88 receive~ carrier;
#X obj 407 -16 bp~;
#X obj 446 -46 receive Q;
#X obj 393 73 *~;
#X obj 552 -88 receive~ carrier;
#X obj 552 -16 bp~;
#X obj 582 -46 receive Q;
#X obj 538 73 *~;
#X obj 684 -89 receive~ carrier;
#X obj 684 -17 bp~;
#X obj 717 -47 receive Q;
#X obj 670 72 *~;
#X obj 93 135 receive~ carrier;
#X obj 93 207 bp~;
#X obj 108 177 receive Q;
#X obj 78 286 *~;
#X obj 238 135 receive~ carrier;
#X obj 238 207 bp~;
#X obj 253 177 receive Q;
#X obj 223 286 *~;
#X obj 382 138 receive~ carrier;
#X obj 382 210 bp~;
#X obj 397 180 receive Q;
#X obj 367 289 *~;
#X obj 527 138 receive~ carrier;
#X obj 527 210 bp~;
#X obj 542 180 receive Q;
#X obj 512 289 *~;
#X obj 659 137 receive~ carrier;
#X obj 659 209 bp~;
#X obj 674 179 receive Q;
#X obj 644 288 *~;
#X obj 88 370 receive~ carrier;
#X obj 88 442 bp~;
#X obj 103 412 receive Q;
#X obj 73 532 *~;
#X obj 233 370 receive~ carrier;
#X obj 233 442 bp~;
#X obj 248 412 receive Q;
#X obj 218 532 *~;
#X obj 377 373 receive~ carrier;
#X obj 377 445 bp~;
#X obj 392 415 receive Q;
#X obj 362 535 *~;
#X obj 522 373 receive~ carrier;
#X obj 522 445 bp~;
#X obj 537 415 receive Q;
#X obj 507 535 *~;
#X obj 654 372 receive~ carrier;
#X obj 654 444 bp~;
#X obj 669 414 receive Q;
#X obj 639 534 *~;
#X obj 294 -69 receive freqBand_2;
#X obj 438 -67 receive freqBand_3;
#X obj 574 -67 receive freqBand_4;
#X obj 709 -68 receive freqBand_5;
#X obj 100 156 receive freqBand_6;
#X obj 245 156 receive freqBand_7;
#X obj 389 159 receive freqBand_8;
#X obj 534 159 receive freqBand_9;
#X obj 666 158 receive freqBand_10;
#X obj 95 391 receive freqBand_11;
#X obj 240 391 receive freqBand_12;
#X obj 384 394 receive freqBand_13;
#X obj 529 394 receive freqBand_14;
#X obj 661 393 receive freqBand_15;
#X obj 85 612 receive~ carrier;
#X obj 85 684 bp~;
#X obj 100 654 receive Q;
#X obj 70 778 *~;
#X obj 230 612 receive~ carrier;
#X obj 230 684 bp~;
#X obj 245 654 receive Q;
#X obj 215 778 *~;
#X obj 374 615 receive~ carrier;
#X obj 374 687 bp~;
#X obj 389 657 receive Q;
#X obj 359 781 *~;
#X obj 519 615 receive~ carrier;
#X obj 519 687 bp~;
#X obj 534 657 receive Q;
#X obj 504 781 *~;
#X obj 651 614 receive~ carrier;
#X obj 651 686 bp~;
#X obj 666 656 receive Q;
#X obj 636 780 *~;
#X obj 76 834 receive~ carrier;
#X obj 76 906 bp~;
#X obj 91 876 receive Q;
#X obj 61 999 *~;
#X obj 221 834 receive~ carrier;
#X obj 221 906 bp~;
#X obj 236 876 receive Q;
#X obj 206 999 *~;
#X obj 365 837 receive~ carrier;
#X obj 365 909 bp~;
#X obj 380 879 receive Q;
#X obj 350 1002 *~;
#X obj 510 837 receive~ carrier;
#X obj 510 909 bp~;
#X obj 525 879 receive Q;
#X obj 495 1002 *~;
#X obj 642 836 receive~ carrier;
#X obj 642 908 bp~;
#X obj 657 878 receive Q;
#X obj 627 1001 *~;
#X obj 92 633 receive freqBand_16;
#X obj 237 633 receive freqBand_17;
#X obj 381 636 receive freqBand_18;
#X obj 526 636 receive freqBand_19;
#X obj 658 635 receive freqBand_20;
#X obj 83 855 receive freqBand_21;
#X obj 228 855 receive freqBand_22;
#X obj 372 858 receive freqBand_23;
#X obj 517 858 receive freqBand_24;
#X obj 649 857 receive freqBand_25;
#X obj 249 43 receive~ envBand_2;
#X obj 393 46 receive~ envBand_3;
#X obj 538 46 receive~ envBand_4;
#X obj 670 45 receive~ envBand_5;
#X obj 78 259 receive~ envBand_6;
#X obj 223 259 receive~ envBand_7;
#X obj 367 262 receive~ envBand_8;
#X obj 512 262 receive~ envBand_9;
#X obj 644 261 receive~ envBand_10;
#X obj 73 505 receive~ envBand_11;
#X obj 218 505 receive~ envBand_12;
#X obj 362 508 receive~ envBand_13;
#X obj 507 508 receive~ envBand_14;
#X obj 639 507 receive~ envBand_15;
#X obj 70 751 receive~ envBand_16;
#X obj 215 751 receive~ envBand_17;
#X obj 359 754 receive~ envBand_18;
#X obj 504 754 receive~ envBand_19;
#X obj 636 753 receive~ envBand_20;
#X obj 61 972 receive~ envBand_21;
#X obj 206 972 receive~ envBand_22;
#X obj 350 975 receive~ envBand_23;
#X obj 495 975 receive~ envBand_24;
#X obj 627 974 receive~ envBand_25;
#X obj 85 36 receive~ envBand_1;
#X obj 249 99 throw~ summing;
#X obj 394 102 throw~ summing;
#X obj 538 102 throw~ summing;
#X obj 670 101 throw~ summing;
#X obj 78 315 throw~ summing;
#X obj 223 315 throw~ summing;
#X obj 367 318 throw~ summing;
#X obj 512 318 throw~ summing;
#X obj 644 317 throw~ summing;
#X obj 73 562 throw~ summing;
#X obj 218 561 throw~ summing;
#X obj 362 566 throw~ summing;
#X obj 508 564 throw~ summing;
#X obj 639 563 throw~ summing;
#X obj 70 807 throw~ summing;
#X obj 215 807 throw~ summing;
#X obj 359 810 throw~ summing;
#X obj 504 810 throw~ summing;
#X obj 636 809 throw~ summing;
#X obj 61 1028 throw~ summing;
#X obj 206 1028 throw~ summing;
#X obj 350 1031 throw~ summing;
#X obj 495 1031 throw~ summing;
#X obj 627 1030 throw~ summing;
#X obj 263 5 bp~;
#X obj 98 6 bp~;
#X obj 683 11 bp~;
#X obj 405 8 bp~;
#X obj 551 10 bp~;
#X obj 236 232 bp~;
#X obj 93 230 bp~;
#X obj 660 235 bp~;
#X obj 380 234 bp~;
#X obj 527 234 bp~;
#X obj 239 474 bp~;
#X obj 89 473 bp~;
#X obj 654 472 bp~;
#X obj 376 474 bp~;
#X obj 524 475 bp~;
#X obj 235 715 bp~;
#X obj 85 714 bp~;
#X obj 650 713 bp~;
#X obj 372 715 bp~;
#X obj 520 716 bp~;
#X obj 227 939 bp~;
#X obj 77 938 bp~;
#X obj 642 937 bp~;
#X obj 364 939 bp~;
#X obj 512 940 bp~;
#X obj 36 128 env~;
#X floatatom 36 150 5 0 0 0 - - -, f 5;
#X connect 0 0 1 0;
#X connect 0 0 201 0;
#X connect 1 0 177 0;
#X connect 2 0 1 1;
#X connect 2 0 177 1;
#X connect 3 0 1 2;
#X connect 3 0 177 2;
#X connect 4 0 5 0;
#X connect 7 0 8 0;
#X connect 8 0 176 0;
#X connect 9 0 8 2;
#X connect 9 0 176 2;
#X connect 10 0 152 0;
#X connect 11 0 12 0;
#X connect 12 0 179 0;
#X connect 13 0 12 2;
#X connect 13 0 179 2;
#X connect 14 0 153 0;
#X connect 15 0 16 0;
#X connect 16 0 180 0;
#X connect 17 0 16 2;
#X connect 17 0 180 2;
#X connect 18 0 154 0;
#X connect 19 0 20 0;
#X connect 20 0 178 0;
#X connect 21 0 20 2;
#X connect 21 0 178 2;
#X connect 22 0 155 0;
#X connect 23 0 24 0;
#X connect 24 0 182 0;
#X connect 25 0 24 2;
#X connect 25 0 182 2;
#X connect 26 0 156 0;
#X connect 27 0 28 0;
#X connect 28 0 181 0;
#X connect 29 0 28 2;
#X connect 29 0 181 2;
#X connect 30 0 157 0;
#X connect 31 0 32 0;
#X connect 32 0 184 0;
#X connect 33 0 32 2;
#X connect 33 0 184 2;
#X connect 34 0 158 0;
#X connect 35 0 36 0;
#X connect 36 0 185 0;
#X connect 37 0 36 2;
#X connect 37 0 185 2;
#X connect 38 0 159 0;
#X connect 39 0 40 0;
#X connect 40 0 183 0;
#X connect 41 0 40 2;
#X connect 41 0 183 2;
#X connect 42 0 160 0;
#X connect 43 0 44 0;
#X connect 44 0 187 0;
#X connect 45 0 44 2;
#X connect 45 0 187 2;
#X connect 46 0 161 0;
#X connect 47 0 48 0;
#X connect 48 0 186 0;
#X connect 49 0 48 2;
#X connect 49 0 186 2;
#X connect 50 0 162 0;
#X connect 51 0 52 0;
#X connect 52 0 189 0;
#X connect 53 0 52 2;
#X connect 53 0 189 2;
#X connect 54 0 163 0;
#X connect 55 0 56 0;
#X connect 56 0 190 0;
#X connect 57 0 56 2;
#X connect 57 0 190 2;
#X connect 58 0 164 0;
#X connect 59 0 60 0;
#X connect 60 0 188 0;
#X connect 61 0 60 2;
#X connect 61 0 188 2;
#X connect 62 0 165 0;
#X connect 63 0 8 1;
#X connect 63 0 176 1;
#X connect 64 0 12 1;
#X connect 64 0 179 1;
#X connect 65 0 16 1;
#X connect 65 0 180 1;
#X connect 66 0 20 1;
#X connect 66 0 178 1;
#X connect 67 0 24 1;
#X connect 67 0 182 1;
#X connect 68 0 28 1;
#X connect 68 0 181 1;
#X connect 69 0 32 1;
#X connect 69 0 184 1;
#X connect 70 0 36 1;
#X connect 70 0 185 1;
#X connect 71 0 40 1;
#X connect 71 0 183 1;
#X connect 72 0 44 1;
#X connect 72 0 187 1;
#X connect 73 0 48 1;
#X connect 73 0 186 1;
#X connect 74 0 52 1;
#X connect 74 0 189 1;
#X connect 75 0 56 1;
#X connect 75 0 190 1;
#X connect 76 0 60 1;
#X connect 76 0 188 1;
#X connect 77 0 78 0;
#X connect 78 0 192 0;
#X connect 79 0 78 2;
#X connect 79 0 192 2;
#X connect 80 0 166 0;
#X connect 81 0 82 0;
#X connect 82 0 191 0;
#X connect 83 0 82 2;
#X connect 83 0 191 2;
#X connect 84 0 167 0;
#X connect 85 0 86 0;
#X connect 86 0 194 0;
#X connect 87 0 86 2;
#X connect 87 0 194 2;
#X connect 88 0 168 0;
#X connect 89 0 90 0;
#X connect 90 0 195 0;
#X connect 91 0 90 2;
#X connect 91 0 195 2;
#X connect 92 0 169 0;
#X connect 93 0 94 0;
#X connect 94 0 193 0;
#X connect 95 0 94 2;
#X connect 95 0 193 2;
#X connect 96 0 170 0;
#X connect 97 0 98 0;
#X connect 98 0 197 0;
#X connect 99 0 98 2;
#X connect 99 0 197 2;
#X connect 100 0 171 0;
#X connect 101 0 102 0;
#X connect 102 0 196 0;
#X connect 103 0 102 2;
#X connect 103 0 196 2;
#X connect 104 0 172 0;
#X connect 105 0 106 0;
#X connect 106 0 199 0;
#X connect 107 0 106 2;
#X connect 107 0 199 2;
#X connect 108 0 173 0;
#X connect 109 0 110 0;
#X connect 110 0 200 0;
#X connect 111 0 110 2;
#X connect 111 0 200 2;
#X connect 112 0 174 0;
#X connect 113 0 114 0;
#X connect 114 0 198 0;
#X connect 115 0 114 2;
#X connect 115 0 198 2;
#X connect 116 0 175 0;
#X connect 117 0 78 1;
#X connect 117 0 192 1;
#X connect 118 0 82 1;
#X connect 118 0 191 1;
#X connect 119 0 86 1;
#X connect 119 0 194 1;
#X connect 120 0 90 1;
#X connect 120 0 195 1;
#X connect 121 0 94 1;
#X connect 121 0 193 1;
#X connect 122 0 98 1;
#X connect 122 0 197 1;
#X connect 123 0 102 1;
#X connect 123 0 196 1;
#X connect 124 0 106 1;
#X connect 124 0 199 1;
#X connect 125 0 110 1;
#X connect 125 0 200 1;
#X connect 126 0 114 1;
#X connect 126 0 198 1;
#X connect 127 0 10 0;
#X connect 128 0 14 0;
#X connect 129 0 18 0;
#X connect 130 0 22 0;
#X connect 131 0 26 0;
#X connect 132 0 30 0;
#X connect 133 0 34 0;
#X connect 134 0 38 0;
#X connect 135 0 42 0;
#X connect 136 0 46 0;
#X connect 137 0 50 0;
#X connect 138 0 54 0;
#X connect 139 0 58 0;
#X connect 140 0 62 0;
#X connect 141 0 80 0;
#X connect 142 0 84 0;
#X connect 143 0 88 0;
#X connect 144 0 92 0;
#X connect 145 0 96 0;
#X connect 146 0 100 0;
#X connect 147 0 104 0;
#X connect 148 0 108 0;
#X connect 149 0 112 0;
#X connect 150 0 116 0;
#X connect 151 0 4 0;
#X connect 176 0 10 1;
#X connect 177 0 4 1;
#X connect 178 0 22 1;
#X connect 179 0 14 1;
#X connect 180 0 18 1;
#X connect 181 0 30 1;
#X connect 182 0 26 1;
#X connect 183 0 42 1;
#X connect 184 0 34 1;
#X connect 185 0 38 1;
#X connect 186 0 50 1;
#X connect 187 0 46 1;
#X connect 188 0 62 1;
#X connect 189 0 54 1;
#X connect 190 0 58 1;
#X connect 191 0 84 1;
#X connect 192 0 80 1;
#X connect 193 0 96 1;
#X connect 194 0 88 1;
#X connect 195 0 92 1;
#X connect 196 0 104 1;
#X connect 197 0 100 1;
#X connect 198 0 116 1;
#X connect 199 0 108 1;
#X connect 200 0 112 1;
#X connect 201 0 202 0;
