#N canvas 0 29 1278 769 10;
#X obj 176 20 inlet;
#X obj 266 200 bp~;
#X obj 157 447 *~;
#X obj 157 476 throw~ summing;
#X obj 267 226 bp~;
#X obj 27 196 bp~;
#X obj 27 250 env~ 1024;
#X obj 27 341 dbtorms~;
#X obj 27 227 bp~;
#X msg 27 279 \$1 20;
#X obj 26 313 line~;
#X obj 25 57 r~ modulator;
#X obj 82 193 r Q;
#X obj 318 182 r Q;
#X obj 264 59 r~ carrier;
#X connect 0 0 5 1;
#X connect 0 0 8 1;
#X connect 0 0 1 1;
#X connect 0 0 4 1;
#X connect 1 0 4 0;
#X connect 2 0 3 0;
#X connect 4 0 2 1;
#X connect 5 0 8 0;
#X connect 6 0 9 0;
#X connect 7 0 2 0;
#X connect 8 0 6 0;
#X connect 9 0 10 0;
#X connect 10 0 7 0;
#X connect 11 0 5 0;
#X connect 12 0 5 2;
#X connect 12 0 8 2;
#X connect 13 0 1 2;
#X connect 13 0 4 2;
#X connect 14 0 1 0;
