#N canvas 0 29 1278 769 10;
#X obj 50 192 readsf~;
#X obj 50 419 send~ modulator;
#X obj 107 191 adc~;
#X msg 57 162 1;
#X msg 93 162 0;
#X obj 443 198 readsf~;
#X msg 452 168 1;
#X msg 488 168 0;
#X obj 257 38 trigger bang bang bang bang;
#X text 251 5 Load files and play them;
#X obj 91 682 send Q;
#X text 647 -13 Give the Filterbanks their values;
#X obj 206 405 catch~ summing;
#X obj 206 536 dac~;
#X text 103 211 send adc~ to modulator if you want Mic input;
#X text 164 354 Summing and volume;
#X obj 258 128 trigger bang bang;
#X obj 258 90 bng 15 250 50 0 empty empty empty 17 7 0 10 -262144 -1
-1;
#X text 280 90 Stop!;
#X obj 481 -7 trigger bang bang;
#X obj 480 -39 bng 15 250 50 0 empty empty empty 17 7 0 10 -262144
-1 -1;
#X text 510 -34 Start;
#X obj 922 120 send freqBand_3;
#X obj 662 125 send freqBand_1;
#X obj 805 119 send freqBand_2;
#X obj 1057 121 send freqBand_4;
#X obj 1178 122 send freqBand_5;
#X obj 667 222 send freqBand_6;
#X obj 801 225 send freqBand_7;
#X obj 921 226 send freqBand_8;
#X obj 1056 227 send freqBand_9;
#X obj 1177 228 send freqBand_10;
#X obj 669 341 send freqBand_11;
#X obj 804 342 send freqBand_12;
#X obj 926 341 send freqBand_13;
#X obj 1057 344 send freqBand_14;
#X obj 1178 345 send freqBand_15;
#X obj 670 452 send freqBand_16;
#X obj 803 452 send freqBand_17;
#X obj 924 454 send freqBand_18;
#X obj 1058 455 send freqBand_19;
#X obj 1179 456 send freqBand_20;
#X obj 671 550 send freqBand_21;
#X obj 804 551 send freqBand_22;
#X obj 925 552 send freqBand_23;
#X obj 1059 553 send freqBand_24;
#X obj 1180 554 send freqBand_25;
#X obj 532 65 send bang;
#X obj 532 36 trigger bang;
#X obj 51 514 receive bang;
#X obj 181 260 dac~;
#X msg 107 489 50;
#X msg 50 137 open ff.wav;
#X floatatom 99 655 5 0 0 0 - - -, f 5;
#X obj 151 571 vsl 15 128 1.27 1000 1 0 empty empty empty 0 -9 0 10
-262144 -1 -1 7100 1;
#X obj 431 503 send~ carrier;
#X obj 344 577 vcf~;
#X text 197 644 Prova env followa en Noise kanal som här högpassad
;
#X text 206 665 Prova använd alla bandpass i filterbanken;
#X text 212 693 HP verkar buggad \, kolla hur BP funkar egentligen.
Kan de ersättas med VCF?;
#X obj 338 262 noise~;
#X msg 443 139 open donjuan.wav;
#X obj 91 12 osc~ 440;
#X obj 433 280 mtof;
#X floatatom 472 280 5 0 0 0 - - -, f 5;
#X floatatom 182 9 5 0 0 0 - - -, f 5;
#X obj 292 169 adc~;
#N canvas 0 29 1278 769 multiphasor 0;
#X obj 655 276 hsl 128 15 0 127 0 0 empty empty empty -2 -8 0 10 -262144
-1 -1 5100 1;
#X obj 669 243 mtof;
#X floatatom 608 278 5 0 0 0 - - -, f 5;
#X obj 716 185 * 2;
#X obj 882 181 * 5;
#X obj 775 184 * 3;
#X obj 841 185 * 4;
#X obj 810 243 phasor~;
#X obj 738 209 phasor~;
#X obj 652 215 phasor~;
#X obj 830 203 phasor~;
#X obj 761 236 phasor~;
#X obj 585 242 *~ 0.2;
#X obj 511 284 outlet~;
#X connect 0 0 1 0;
#X connect 1 0 2 0;
#X connect 1 0 3 0;
#X connect 1 0 5 0;
#X connect 1 0 6 0;
#X connect 1 0 4 0;
#X connect 1 0 9 0;
#X connect 3 0 8 0;
#X connect 4 0 7 0;
#X connect 5 0 10 0;
#X connect 6 0 11 0;
#X connect 7 0 12 0;
#X connect 8 0 12 0;
#X connect 9 0 12 0;
#X connect 10 0 12 0;
#X connect 11 0 12 0;
#X connect 12 0 13 0;
#X restore 472 341 pd multiphasor;
#X obj 666 93 mtof;
#X floatatom 803 70 5 0 0 0 - - -, f 5;
#X obj 730 84 +;
#X obj 947 -19 nbx 5 14 -1e+37 1e+37 0 0 bi empty bp_interval 0 -8
2 10 -262144 -1 -1 4 256;
#X obj 743 60 r bi;
#X obj 665 33 receive fbang;
#X obj 804 94 mtof;
#X floatatom 923 69 5 0 0 0 - - -, f 5;
#X obj 859 72 +;
#X obj 872 48 r bi;
#X obj 925 92 mtof;
#X floatatom 1056 62 5 0 0 0 - - -, f 5;
#X obj 992 65 +;
#X obj 1005 41 r bi;
#X obj 1058 85 mtof;
#X floatatom 1177 69 5 0 0 0 - - -, f 5;
#X obj 1114 56 +;
#X obj 1127 32 r bi;
#X obj 1178 92 mtof;
#X floatatom 666 174 5 0 0 0 - - -, f 5;
#X obj 607 175 +;
#X obj 620 154 r bi;
#X obj 667 197 mtof;
#X floatatom 800 174 5 0 0 0 - - -, f 5;
#X obj 741 175 +;
#X obj 754 154 r bi;
#X obj 801 197 mtof;
#X floatatom 919 171 5 0 0 0 - - -, f 5;
#X obj 860 172 +;
#X obj 873 151 r bi;
#X obj 920 194 mtof;
#X floatatom 1055 172 5 0 0 0 - - -, f 5;
#X obj 996 173 +;
#X obj 1009 152 r bi;
#X obj 1056 195 mtof;
#X floatatom 1179 171 5 0 0 0 - - -, f 5;
#X obj 1120 172 +;
#X obj 1133 151 r bi;
#X obj 1180 194 mtof;
#X obj 946 6 s fbang;
#X floatatom 670 281 5 0 0 0 - - -, f 5;
#X obj 611 282 +;
#X obj 624 261 r bi;
#X obj 671 304 mtof;
#X floatatom 803 286 5 0 0 0 - - -, f 5;
#X obj 744 287 +;
#X obj 757 266 r bi;
#X obj 804 309 mtof;
#X floatatom 922 285 5 0 0 0 - - -, f 5;
#X obj 863 286 +;
#X obj 876 265 r bi;
#X obj 924 309 mtof;
#X floatatom 1055 288 5 0 0 0 - - -, f 5;
#X obj 996 289 +;
#X obj 1009 268 r bi;
#X obj 1056 311 mtof;
#X floatatom 1179 285 5 0 0 0 - - -, f 5;
#X obj 1120 286 +;
#X obj 1133 265 r bi;
#X obj 1180 308 mtof;
#X floatatom 669 397 5 0 0 0 - - -, f 5;
#X obj 610 398 +;
#X obj 623 377 r bi;
#X obj 670 420 mtof;
#X floatatom 803 406 5 0 0 0 - - -, f 5;
#X obj 744 407 +;
#X obj 757 386 r bi;
#X obj 804 429 mtof;
#X floatatom 925 405 5 0 0 0 - - -, f 5;
#X obj 866 406 +;
#X obj 879 385 r bi;
#X obj 926 428 mtof;
#X floatatom 1057 403 5 0 0 0 - - -, f 5;
#X obj 998 404 +;
#X obj 1011 383 r bi;
#X obj 1058 426 mtof;
#X floatatom 1179 398 5 0 0 0 - - -, f 5;
#X obj 1120 399 +;
#X obj 1133 378 r bi;
#X obj 1180 422 mtof;
#X floatatom 672 501 5 0 0 0 - - -, f 5;
#X obj 613 502 +;
#X obj 626 481 r bi;
#X obj 673 524 mtof;
#X floatatom 806 501 5 0 0 0 - - -, f 5;
#X obj 747 502 +;
#X obj 760 481 r bi;
#X obj 807 524 mtof;
#X floatatom 925 502 5 0 0 0 - - -, f 5;
#X obj 866 503 +;
#X obj 879 482 r bi;
#X obj 926 525 mtof;
#X floatatom 1059 503 5 0 0 0 - - -, f 5;
#X obj 1000 504 +;
#X obj 1013 483 r bi;
#X obj 1060 526 mtof;
#X floatatom 1179 504 5 0 0 0 - - -, f 5;
#X obj 1120 505 +;
#X obj 1133 484 r bi;
#X obj 1180 527 mtof;
#X msg 666 67 24;
#X obj 207 470 *~;
#X floatatom 255 463 5 0 0 0 - - -, f 5;
#X obj 444 312 hsl 128 15 0 127 0 0 empty empty empty -2 -8 0 10 -262144
-1 -1 4500 1;
#X floatatom 1241 525 5 0 0 0 - - -, f 5;
#X floatatom 1116 529 5 0 0 0 - - -, f 5;
#X floatatom 997 530 5 0 0 0 - - -, f 5;
#X floatatom 862 528 5 0 0 0 - - -, f 5;
#X floatatom 729 528 5 0 0 0 - - -, f 5;
#X floatatom 1236 423 5 0 0 0 - - -, f 5;
#X floatatom 1115 430 5 0 0 0 - - -, f 5;
#X floatatom 984 431 5 0 0 0 - - -, f 5;
#X floatatom 859 434 5 0 0 0 - - -, f 5;
#X floatatom 734 431 5 0 0 0 - - -, f 5;
#X floatatom 738 315 5 0 0 0 - - -, f 5;
#X floatatom 861 316 5 0 0 0 - - -, f 5;
#X floatatom 983 317 5 0 0 0 - - -, f 5;
#X floatatom 1114 316 5 0 0 0 - - -, f 5;
#X floatatom 1236 312 5 0 0 0 - - -, f 5;
#X floatatom 1234 196 5 0 0 0 - - -, f 5;
#X floatatom 1112 199 5 0 0 0 - - -, f 5;
#X floatatom 982 201 5 0 0 0 - - -, f 5;
#X floatatom 862 200 5 0 0 0 - - -, f 5;
#X floatatom 730 203 5 0 0 0 - - -, f 5;
#X floatatom 731 107 5 0 0 0 - - -, f 5;
#X floatatom 857 99 5 0 0 0 - - -, f 5;
#X floatatom 980 96 5 0 0 0 - - -, f 5;
#X floatatom 1110 92 5 0 0 0 - - -, f 5;
#X floatatom 1234 91 5 0 0 0 - - -, f 5;
#X obj 59 57;
#X obj 350 343 *~ 0.1;
#X floatatom 438 337 5 0 0 0 - - -, f 5;
#X obj 416 253 phasor~;
#X connect 0 0 1 0;
#X connect 3 0 0 0;
#X connect 4 0 0 0;
#X connect 6 0 5 0;
#X connect 7 0 5 0;
#X connect 8 0 3 0;
#X connect 8 1 52 0;
#X connect 8 2 6 0;
#X connect 8 3 61 0;
#X connect 12 0 169 0;
#X connect 16 0 4 0;
#X connect 16 1 7 0;
#X connect 17 0 16 0;
#X connect 19 0 8 0;
#X connect 19 1 48 0;
#X connect 20 0 19 0;
#X connect 48 0 47 0;
#X connect 49 0 51 0;
#X connect 52 0 0 0;
#X connect 53 0 10 0;
#X connect 54 0 53 0;
#X connect 60 0 198 0;
#X connect 61 0 5 0;
#X connect 62 0 197 0;
#X connect 63 0 64 0;
#X connect 63 0 200 0;
#X connect 68 0 23 0;
#X connect 68 0 192 0;
#X connect 69 0 74 0;
#X connect 69 0 76 0;
#X connect 70 0 69 0;
#X connect 71 0 107 0;
#X connect 72 0 70 1;
#X connect 73 0 168 0;
#X connect 74 0 24 0;
#X connect 74 0 193 0;
#X connect 75 0 78 0;
#X connect 75 0 80 0;
#X connect 76 0 75 0;
#X connect 77 0 76 1;
#X connect 78 0 22 0;
#X connect 78 0 194 0;
#X connect 79 0 82 0;
#X connect 79 0 84 0;
#X connect 80 0 79 0;
#X connect 81 0 80 1;
#X connect 82 0 25 0;
#X connect 82 0 195 0;
#X connect 83 0 86 0;
#X connect 83 0 88 0;
#X connect 84 0 83 0;
#X connect 85 0 84 1;
#X connect 86 0 26 0;
#X connect 86 0 196 0;
#X connect 87 0 90 0;
#X connect 87 0 92 0;
#X connect 88 0 87 0;
#X connect 89 0 88 1;
#X connect 90 0 27 0;
#X connect 90 0 191 0;
#X connect 91 0 94 0;
#X connect 91 0 96 0;
#X connect 92 0 91 0;
#X connect 93 0 92 1;
#X connect 94 0 28 0;
#X connect 94 0 190 0;
#X connect 95 0 98 0;
#X connect 95 0 100 0;
#X connect 96 0 95 0;
#X connect 97 0 96 1;
#X connect 98 0 29 0;
#X connect 98 0 189 0;
#X connect 99 0 102 0;
#X connect 99 0 104 0;
#X connect 100 0 99 0;
#X connect 101 0 100 1;
#X connect 102 0 30 0;
#X connect 102 0 188 0;
#X connect 103 0 106 0;
#X connect 103 0 109 0;
#X connect 104 0 103 0;
#X connect 105 0 104 1;
#X connect 106 0 31 0;
#X connect 106 0 187 0;
#X connect 108 0 111 0;
#X connect 108 0 113 0;
#X connect 109 0 108 0;
#X connect 110 0 109 1;
#X connect 111 0 32 0;
#X connect 111 0 182 0;
#X connect 112 0 115 0;
#X connect 112 0 117 0;
#X connect 113 0 112 0;
#X connect 114 0 113 1;
#X connect 115 0 33 0;
#X connect 115 0 183 0;
#X connect 116 0 119 0;
#X connect 116 0 121 0;
#X connect 117 0 116 0;
#X connect 118 0 117 1;
#X connect 119 0 34 0;
#X connect 119 0 184 0;
#X connect 120 0 123 0;
#X connect 120 0 125 0;
#X connect 121 0 120 0;
#X connect 122 0 121 1;
#X connect 123 0 35 0;
#X connect 123 0 185 0;
#X connect 124 0 127 0;
#X connect 124 0 129 0;
#X connect 125 0 124 0;
#X connect 126 0 125 1;
#X connect 127 0 36 0;
#X connect 127 0 186 0;
#X connect 128 0 131 0;
#X connect 128 0 133 0;
#X connect 129 0 128 0;
#X connect 130 0 129 1;
#X connect 131 0 37 0;
#X connect 131 0 181 0;
#X connect 132 0 135 0;
#X connect 132 0 137 0;
#X connect 133 0 132 0;
#X connect 134 0 133 1;
#X connect 135 0 38 0;
#X connect 135 0 180 0;
#X connect 136 0 139 0;
#X connect 136 0 141 0;
#X connect 137 0 136 0;
#X connect 138 0 137 1;
#X connect 139 0 39 0;
#X connect 139 0 179 0;
#X connect 140 0 143 0;
#X connect 140 0 145 0;
#X connect 141 0 140 0;
#X connect 142 0 141 1;
#X connect 143 0 40 0;
#X connect 143 0 178 0;
#X connect 144 0 147 0;
#X connect 144 0 149 0;
#X connect 145 0 144 0;
#X connect 146 0 145 1;
#X connect 147 0 41 0;
#X connect 147 0 177 0;
#X connect 148 0 151 0;
#X connect 148 0 153 0;
#X connect 149 0 148 0;
#X connect 150 0 149 1;
#X connect 151 0 42 0;
#X connect 151 0 176 0;
#X connect 152 0 155 0;
#X connect 152 0 157 0;
#X connect 153 0 152 0;
#X connect 154 0 153 1;
#X connect 155 0 43 0;
#X connect 155 0 175 0;
#X connect 156 0 159 0;
#X connect 156 0 161 0;
#X connect 157 0 156 0;
#X connect 158 0 157 1;
#X connect 159 0 44 0;
#X connect 159 0 174 0;
#X connect 160 0 163 0;
#X connect 160 0 165 0;
#X connect 161 0 160 0;
#X connect 162 0 161 1;
#X connect 163 0 45 0;
#X connect 163 0 173 0;
#X connect 164 0 167 0;
#X connect 165 0 164 0;
#X connect 166 0 165 1;
#X connect 167 0 46 0;
#X connect 167 0 172 0;
#X connect 168 0 68 0;
#X connect 168 0 70 0;
#X connect 169 0 13 0;
#X connect 169 0 13 1;
#X connect 170 0 169 1;
#X connect 171 0 63 0;
#X connect 171 0 199 0;
#X connect 200 0 55 0;
