#N canvas 0 29 1278 769 10;
#X obj 50 192 readsf~;
#X obj 50 419 send~ modulator;
#X msg 62 162 1;
#X msg 93 162 0;
#X obj 446 205 readsf~;
#X msg 452 168 1;
#X msg 488 168 0;
#X obj 205 327 send Q;
#X text 647 -13 Give the Filterbanks their values;
#X obj 206 405 catch~ summing;
#X obj 206 536 dac~;
#X text 164 354 Summing and volume;
#X obj 258 128 trigger bang bang;
#X obj 258 90 bng 15 250 50 0 empty empty empty 17 7 0 10 -262144 -1
-1;
#X text 280 90 Stop!;
#X obj 481 -7 trigger bang bang;
#X obj 480 -39 bng 15 250 50 0 empty empty empty 17 7 0 10 -262144
-1 -1;
#X text 510 -34 Start;
#X obj 922 120 filterbank;
#X obj 805 119 filterbank;
#X obj 1057 121 filterbank;
#X obj 1178 122 filterbank;
#X obj 667 222 filterbank;
#X obj 801 225 filterbank;
#X obj 921 226 filterbank;
#X obj 1056 227 filterbank;
#X obj 1177 228 filterbank;
#X obj 669 341 filterbank;
#X obj 804 342 filterbank;
#X obj 926 341 filterbank;
#X obj 1057 344 filterbank;
#X obj 1178 345 filterbank;
#X obj 670 452 filterbank;
#X obj 803 452 filterbank;
#X obj 924 454 filterbank;
#X obj 1058 455 filterbank;
#X obj 1179 456 filterbank;
#X obj 671 550 filterbank;
#X obj 804 551 filterbank;
#X obj 532 65 send bang;
#X obj 532 36 trigger bang;
#X obj 177 215 vsl 15 128 1 200 0 0 empty vocoder_q vocoder_q 0 -9
1 10 -262144 -1 -1 1468 1;
#X obj 408 462 phasor~ 300;
#X obj 425 489 mtof;
#X floatatom 464 489 5 0 0 0 - - -, f 5;
#N canvas 0 50 1278 769 multiphasor 0;
#X obj 655 276 hsl 128 15 0 127 0 0 empty empty empty -2 -8 0 10 -262144
-1 -1 0 1;
#X obj 669 243 mtof;
#X floatatom 608 278 5 0 0 0 - - -, f 5;
#X obj 716 185 * 2;
#X obj 882 181 * 5;
#X obj 775 184 * 3;
#X obj 841 185 * 4;
#X obj 810 243 phasor~;
#X obj 738 209 phasor~;
#X obj 652 215 phasor~;
#X obj 830 203 phasor~;
#X obj 761 236 phasor~;
#X obj 585 242 *~ 0.2;
#X obj 511 284 outlet~;
#X connect 0 0 1 0;
#X connect 1 0 2 0;
#X connect 1 0 3 0;
#X connect 1 0 5 0;
#X connect 1 0 6 0;
#X connect 1 0 4 0;
#X connect 1 0 9 0;
#X connect 3 0 8 0;
#X connect 4 0 7 0;
#X connect 5 0 10 0;
#X connect 6 0 11 0;
#X connect 7 0 12 0;
#X connect 8 0 12 0;
#X connect 9 0 12 0;
#X connect 10 0 12 0;
#X connect 11 0 12 0;
#X connect 12 0 13 0;
#X restore 464 550 pd multiphasor;
#X obj 666 93 mtof;
#X floatatom 803 70 5 0 0 0 - - -, f 5;
#X obj 730 84 +;
#X obj 947 -19 nbx 5 14 -1e+37 1e+37 0 0 bi bp_interval bp_interval
0 -8 2 10 -262144 -1 -1 3 256;
#X obj 743 60 r bi;
#X obj 665 33 receive fbang;
#X obj 804 94 mtof;
#X floatatom 923 69 5 0 0 0 - - -, f 5;
#X obj 859 72 +;
#X obj 872 48 r bi;
#X obj 925 92 mtof;
#X floatatom 1056 62 5 0 0 0 - - -, f 5;
#X obj 992 65 +;
#X obj 1005 41 r bi;
#X obj 1058 85 mtof;
#X floatatom 1177 69 5 0 0 0 - - -, f 5;
#X obj 1114 56 +;
#X obj 1127 32 r bi;
#X obj 1178 92 mtof;
#X floatatom 666 174 5 0 0 0 - - -, f 5;
#X obj 607 175 +;
#X obj 620 154 r bi;
#X obj 667 197 mtof;
#X floatatom 800 174 5 0 0 0 - - -, f 5;
#X obj 741 175 +;
#X obj 754 154 r bi;
#X obj 801 197 mtof;
#X floatatom 919 171 5 0 0 0 - - -, f 5;
#X obj 860 172 +;
#X obj 873 151 r bi;
#X obj 920 194 mtof;
#X floatatom 1055 172 5 0 0 0 - - -, f 5;
#X obj 996 173 +;
#X obj 1009 152 r bi;
#X obj 1056 195 mtof;
#X floatatom 1179 171 5 0 0 0 - - -, f 5;
#X obj 1120 172 +;
#X obj 1133 151 r bi;
#X obj 1180 194 mtof;
#X floatatom 670 281 5 0 0 0 - - -, f 5;
#X obj 611 282 +;
#X obj 624 261 r bi;
#X obj 671 304 mtof;
#X floatatom 803 286 5 0 0 0 - - -, f 5;
#X obj 744 287 +;
#X obj 757 266 r bi;
#X obj 804 309 mtof;
#X floatatom 922 285 5 0 0 0 - - -, f 5;
#X obj 863 286 +;
#X obj 876 265 r bi;
#X obj 924 309 mtof;
#X floatatom 1055 288 5 0 0 0 - - -, f 5;
#X obj 996 289 +;
#X obj 1009 268 r bi;
#X obj 1056 311 mtof;
#X floatatom 1179 285 5 0 0 0 - - -, f 5;
#X obj 1120 286 +;
#X obj 1133 265 r bi;
#X obj 1180 308 mtof;
#X floatatom 669 397 5 0 0 0 - - -, f 5;
#X obj 610 398 +;
#X obj 623 377 r bi;
#X obj 670 420 mtof;
#X floatatom 803 406 5 0 0 0 - - -, f 5;
#X obj 744 407 +;
#X obj 757 386 r bi;
#X obj 804 429 mtof;
#X floatatom 925 405 5 0 0 0 - - -, f 5;
#X obj 866 406 +;
#X obj 879 385 r bi;
#X obj 926 428 mtof;
#X floatatom 1057 403 5 0 0 0 - - -, f 5;
#X obj 998 404 +;
#X obj 1011 383 r bi;
#X obj 1058 426 mtof;
#X floatatom 1179 398 5 0 0 0 - - -, f 5;
#X obj 1120 399 +;
#X obj 1133 378 r bi;
#X obj 1180 422 mtof;
#X floatatom 672 501 5 0 0 0 - - -, f 5;
#X obj 613 502 +;
#X obj 626 481 r bi;
#X obj 673 524 mtof;
#X floatatom 806 501 5 0 0 0 - - -, f 5;
#X obj 747 502 +;
#X obj 760 481 r bi;
#X obj 807 524 mtof;
#X obj 866 503 +;
#X obj 879 482 r bi;
#X msg 666 67 24;
#X obj 207 470 *~;
#X floatatom 252 457 5 0 0 2 out_gain out_gain -, f 5;
#X obj 435 526 hsl 128 15 0 127 0 0 empty empty empty -2 -8 0 10 -262144
-1 -1 3500 1;
#X floatatom 862 528 5 0 0 0 - - -, f 5;
#X floatatom 729 528 5 0 0 0 - - -, f 5;
#X floatatom 1236 423 5 0 0 0 - - -, f 5;
#X floatatom 1115 430 5 0 0 0 - - -, f 5;
#X floatatom 984 431 5 0 0 0 - - -, f 5;
#X floatatom 859 434 5 0 0 0 - - -, f 5;
#X floatatom 734 431 5 0 0 0 - - -, f 5;
#X floatatom 738 315 5 0 0 0 - - -, f 5;
#X floatatom 861 316 5 0 0 0 - - -, f 5;
#X floatatom 983 317 5 0 0 0 - - -, f 5;
#X floatatom 1114 316 5 0 0 0 - - -, f 5;
#X floatatom 1236 312 5 0 0 0 - - -, f 5;
#X floatatom 1234 196 5 0 0 0 - - -, f 5;
#X floatatom 1112 199 5 0 0 0 - - -, f 5;
#X floatatom 982 201 5 0 0 0 - - -, f 5;
#X floatatom 862 200 5 0 0 0 - - -, f 5;
#X floatatom 730 203 5 0 0 0 - - -, f 5;
#X floatatom 731 107 5 0 0 0 - - -, f 5;
#X floatatom 857 99 5 0 0 0 - - -, f 5;
#X floatatom 980 96 5 0 0 0 - - -, f 5;
#X floatatom 1110 92 5 0 0 0 - - -, f 5;
#X floatatom 1234 91 5 0 0 0 - - -, f 5;
#X text 218 -30 Open \, Load files and play them;
#X obj 351 359 send~ carrier;
#X obj 299 506 env~;
#X floatatom 304 560 5 0 0 0 - - -, f 5;
#X obj 517 213 noise~;
#X obj 540 265 vsl 15 128 0.001 5 1 0 empty noise noise 0 -9 1 10 -262144
-1 -1 0 1;
#X obj 477 261 *~;
#X obj 414 286 +~;
#X msg 443 107 open Carrier2.wav;
#X obj 662 126 filterbank;
#X msg 35 78 open \$1;
#X obj 60 25 openpanel;
#X obj 60 -11 bng 15 250 50 0 empty empty load_soundfile 17 7 0 10
-262144 -1 -1;
#X obj 34 54 symbol;
#X obj 923 547 filterbank;
#X obj 1056 548 filterbank;
#X floatatom 924 498 5 0 0 0 - - -, f 5;
#X obj 925 521 mtof;
#X floatatom 1058 498 5 0 0 0 - - -, f 5;
#X obj 999 499 +;
#X obj 1012 478 r bi;
#X obj 1059 521 mtof;
#X obj 1118 500 +;
#X obj 1131 479 r bi;
#X floatatom 1114 525 5 0 0 0 - - -, f 5;
#X floatatom 981 525 5 0 0 0 - - -, f 5;
#X obj 1173 554 filterbank;
#X floatatom 1175 504 5 0 0 0 - - -, f 5;
#X obj 1176 527 mtof;
#X floatatom 1231 531 5 0 0 0 - - -, f 5;
#X obj 673 650 filterbank;
#X obj 806 651 filterbank;
#X floatatom 674 601 5 0 0 0 - - -, f 5;
#X obj 675 624 mtof;
#X floatatom 808 601 5 0 0 0 - - -, f 5;
#X obj 749 602 +;
#X obj 762 581 r bi;
#X obj 809 624 mtof;
#X obj 868 603 +;
#X obj 881 582 r bi;
#X floatatom 864 628 5 0 0 0 - - -, f 5;
#X floatatom 731 628 5 0 0 0 - - -, f 5;
#X obj 923 657 filterbank;
#X floatatom 925 607 5 0 0 0 - - -, f 5;
#X obj 926 630 mtof;
#X obj 985 609 +;
#X obj 998 588 r bi;
#X floatatom 981 634 5 0 0 0 - - -, f 5;
#X obj 617 602 +;
#X obj 635 578 r bi;
#X obj 204 304 nbx 5 14 -1e+37 1e+37 0 0 empty empty empty 0 -8 1 10
-262144 -1 -1 24 256;
#X obj 478 354 nbx 5 14 -1e+37 1e+37 0 0 empty empty empty 0 -8 1 10
-262144 -1 -1 0 256;
#X msg 34 447 \; vocoder_q 25 \; noise 0.1 \; bp_interval 3 \; out_gain
200 \;;
#X obj 947 8 s fbang;
#X msg 568 333 0;
#X obj 224 -7 trigger bang bang bang bang;
#X msg 159 633 \; vocoder_q 24 \; noise 0 \; bp_interval 3 \; out_gain
200 \;;
#X msg 450 814;
#X msg 36 627 \; vocoder_q 14 \; noise 0 \; bp_interval 3 \; out_gain
200 \;;
#X msg 289 635 \; vocoder_q 34 \; noise 0 \; bp_interval 3 \; out_gain
200 \;;
#X text 36 598 Carrier2-settings;
#X msg 36 729 \; vocoder_q 14 \; noise 0.1 \; bp_interval 3 \; out_gain
200 \;;
#X msg 160 726 \; vocoder_q 24 \; noise 0.1 \; bp_interval 3 \; out_gain
200 \;;
#X msg 289 732 \; vocoder_q 34 \; noise 0.1 \; bp_interval 3 \; out_gain
200 \;;
#X connect 0 0 1 0;
#X connect 2 0 0 0;
#X connect 3 0 0 0;
#X connect 4 0 168 0;
#X connect 5 0 4 0;
#X connect 6 0 4 0;
#X connect 9 0 136 0;
#X connect 12 0 3 0;
#X connect 12 1 6 0;
#X connect 13 0 12 0;
#X connect 15 0 216 0;
#X connect 15 1 40 0;
#X connect 16 0 15 0;
#X connect 40 0 39 0;
#X connect 41 0 211 0;
#X connect 43 0 42 0;
#X connect 43 0 44 0;
#X connect 46 0 156 0;
#X connect 46 0 170 0;
#X connect 47 0 52 0;
#X connect 47 0 54 0;
#X connect 48 0 47 0;
#X connect 49 0 214 0;
#X connect 50 0 48 1;
#X connect 51 0 135 0;
#X connect 52 0 19 0;
#X connect 52 0 157 0;
#X connect 53 0 56 0;
#X connect 53 0 58 0;
#X connect 54 0 53 0;
#X connect 55 0 54 1;
#X connect 56 0 18 0;
#X connect 56 0 158 0;
#X connect 57 0 60 0;
#X connect 57 0 62 0;
#X connect 58 0 57 0;
#X connect 59 0 58 1;
#X connect 60 0 20 0;
#X connect 60 0 159 0;
#X connect 61 0 64 0;
#X connect 61 0 66 0;
#X connect 62 0 61 0;
#X connect 63 0 62 1;
#X connect 64 0 21 0;
#X connect 64 0 160 0;
#X connect 65 0 68 0;
#X connect 65 0 70 0;
#X connect 66 0 65 0;
#X connect 67 0 66 1;
#X connect 68 0 22 0;
#X connect 68 0 155 0;
#X connect 69 0 72 0;
#X connect 69 0 74 0;
#X connect 70 0 69 0;
#X connect 71 0 70 1;
#X connect 72 0 23 0;
#X connect 72 0 154 0;
#X connect 73 0 76 0;
#X connect 73 0 78 0;
#X connect 74 0 73 0;
#X connect 75 0 74 1;
#X connect 76 0 24 0;
#X connect 76 0 153 0;
#X connect 77 0 80 0;
#X connect 77 0 82 0;
#X connect 78 0 77 0;
#X connect 79 0 78 1;
#X connect 80 0 25 0;
#X connect 80 0 152 0;
#X connect 81 0 84 0;
#X connect 81 0 86 0;
#X connect 82 0 81 0;
#X connect 83 0 82 1;
#X connect 84 0 26 0;
#X connect 84 0 151 0;
#X connect 85 0 88 0;
#X connect 85 0 90 0;
#X connect 86 0 85 0;
#X connect 87 0 86 1;
#X connect 88 0 27 0;
#X connect 88 0 146 0;
#X connect 89 0 92 0;
#X connect 89 0 94 0;
#X connect 90 0 89 0;
#X connect 91 0 90 1;
#X connect 92 0 28 0;
#X connect 92 0 147 0;
#X connect 93 0 96 0;
#X connect 93 0 98 0;
#X connect 94 0 93 0;
#X connect 95 0 94 1;
#X connect 96 0 29 0;
#X connect 96 0 148 0;
#X connect 97 0 100 0;
#X connect 97 0 102 0;
#X connect 98 0 97 0;
#X connect 99 0 98 1;
#X connect 100 0 30 0;
#X connect 100 0 149 0;
#X connect 101 0 104 0;
#X connect 101 0 106 0;
#X connect 102 0 101 0;
#X connect 103 0 102 1;
#X connect 104 0 31 0;
#X connect 104 0 150 0;
#X connect 105 0 108 0;
#X connect 105 0 110 0;
#X connect 106 0 105 0;
#X connect 107 0 106 1;
#X connect 108 0 32 0;
#X connect 108 0 145 0;
#X connect 109 0 112 0;
#X connect 109 0 114 0;
#X connect 110 0 109 0;
#X connect 111 0 110 1;
#X connect 112 0 33 0;
#X connect 112 0 144 0;
#X connect 113 0 116 0;
#X connect 113 0 118 0;
#X connect 114 0 113 0;
#X connect 115 0 114 1;
#X connect 116 0 34 0;
#X connect 116 0 143 0;
#X connect 117 0 120 0;
#X connect 117 0 122 0;
#X connect 118 0 117 0;
#X connect 119 0 118 1;
#X connect 120 0 35 0;
#X connect 120 0 142 0;
#X connect 121 0 124 0;
#X connect 121 0 126 0;
#X connect 122 0 121 0;
#X connect 123 0 122 1;
#X connect 124 0 36 0;
#X connect 124 0 141 0;
#X connect 125 0 128 0;
#X connect 125 0 130 0;
#X connect 126 0 125 0;
#X connect 127 0 126 1;
#X connect 128 0 37 0;
#X connect 128 0 140 0;
#X connect 129 0 132 0;
#X connect 129 0 133 0;
#X connect 130 0 129 0;
#X connect 131 0 130 1;
#X connect 132 0 38 0;
#X connect 132 0 139 0;
#X connect 133 0 177 0;
#X connect 134 0 133 1;
#X connect 135 0 46 0;
#X connect 135 0 48 0;
#X connect 136 0 10 0;
#X connect 136 0 10 1;
#X connect 136 0 163 0;
#X connect 137 0 136 1;
#X connect 138 0 43 0;
#X connect 163 0 164 0;
#X connect 165 0 167 0;
#X connect 166 0 212 0;
#X connect 167 0 168 1;
#X connect 168 0 162 0;
#X connect 169 0 4 0;
#X connect 171 0 0 0;
#X connect 172 0 174 1;
#X connect 173 0 172 0;
#X connect 174 0 171 0;
#X connect 177 0 178 0;
#X connect 177 0 180 0;
#X connect 178 0 175 0;
#X connect 178 0 186 0;
#X connect 179 0 182 0;
#X connect 179 0 183 0;
#X connect 180 0 179 0;
#X connect 181 0 180 1;
#X connect 182 0 176 0;
#X connect 182 0 185 0;
#X connect 183 0 188 0;
#X connect 184 0 183 1;
#X connect 188 0 189 0;
#X connect 188 0 209 0;
#X connect 189 0 187 0;
#X connect 189 0 190 0;
#X connect 193 0 194 0;
#X connect 193 0 196 0;
#X connect 194 0 191 0;
#X connect 194 0 202 0;
#X connect 195 0 198 0;
#X connect 195 0 199 0;
#X connect 196 0 195 0;
#X connect 197 0 196 1;
#X connect 198 0 192 0;
#X connect 198 0 201 0;
#X connect 199 0 204 0;
#X connect 200 0 199 1;
#X connect 204 0 205 0;
#X connect 204 0 206 0;
#X connect 205 0 203 0;
#X connect 205 0 208 0;
#X connect 207 0 206 1;
#X connect 209 0 193 0;
#X connect 210 0 209 1;
#X connect 211 0 7 0;
#X connect 212 0 167 1;
#X connect 215 0 166 0;
#X connect 216 0 2 0;
#X connect 216 1 174 0;
#X connect 216 2 5 0;
#X connect 216 3 169 0;
