#N canvas 0 29 1278 769 10;
#X obj 50 192 readsf~;
#X obj 50 419 send~ modulator;
#X msg 62 162 1;
#X msg 93 162 0;
#X obj 443 198 readsf~;
#X msg 452 168 1;
#X msg 488 168 0;
#X obj 257 38 trigger bang bang bang bang;
#X obj 182 287 send Q;
#X text 647 -13 Give the Filterbanks their values;
#X obj 206 405 catch~ summing;
#X obj 206 536 dac~;
#X text 164 354 Summing and volume;
#X obj 258 128 trigger bang bang;
#X obj 258 90 bng 15 250 50 0 empty empty empty 17 7 0 10 -262144 -1
-1;
#X text 280 90 Stop!;
#X obj 481 -7 trigger bang bang;
#X obj 480 -39 bng 15 250 50 0 empty empty empty 17 7 0 10 -262144
-1 -1;
#X text 510 -34 Start;
#X obj 922 120 filterbank;
#X obj 805 119 filterbank;
#X obj 1057 121 filterbank;
#X obj 1178 122 filterbank;
#X obj 667 222 filterbank;
#X obj 801 225 filterbank;
#X obj 921 226 filterbank;
#X obj 1056 227 filterbank;
#X obj 1177 228 filterbank;
#X obj 669 341 filterbank;
#X obj 804 342 filterbank;
#X obj 926 341 filterbank;
#X obj 1057 344 filterbank;
#X obj 1178 345 filterbank;
#X obj 670 452 filterbank;
#X obj 803 452 filterbank;
#X obj 924 454 filterbank;
#X obj 1058 455 filterbank;
#X obj 1179 456 filterbank;
#X obj 671 550 filterbank;
#X obj 804 551 filterbank;
#X obj 925 552 filterbank;
#X obj 1059 553 filterbank;
#X obj 1180 554 filterbank;
#X obj 532 65 send bang;
#X obj 532 36 trigger bang;
#X obj 51 514 receive bang;
#X msg 107 489 50;
#X floatatom 190 260 5 0 0 0 - - -, f 5;
#X obj 242 176 vsl 15 128 1.27 1000 1 0 empty empty empty 0 -9 0 10
-262144 -1 -1 5700 1;
#X obj 408 462 phasor~ 300;
#X obj 425 489 mtof;
#X floatatom 464 489 5 0 0 0 - - -, f 5;
#N canvas 0 29 1278 769 multiphasor 0;
#X obj 655 276 hsl 128 15 0 127 0 0 empty empty empty -2 -8 0 10 -262144
-1 -1 11600 1;
#X obj 669 243 mtof;
#X floatatom 608 278 5 0 0 0 - - -, f 5;
#X obj 716 185 * 2;
#X obj 882 181 * 5;
#X obj 775 184 * 3;
#X obj 841 185 * 4;
#X obj 810 243 phasor~;
#X obj 738 209 phasor~;
#X obj 652 215 phasor~;
#X obj 830 203 phasor~;
#X obj 761 236 phasor~;
#X obj 585 242 *~ 0.2;
#X obj 511 284 outlet~;
#X connect 0 0 1 0;
#X connect 1 0 2 0;
#X connect 1 0 3 0;
#X connect 1 0 5 0;
#X connect 1 0 6 0;
#X connect 1 0 4 0;
#X connect 1 0 9 0;
#X connect 3 0 8 0;
#X connect 4 0 7 0;
#X connect 5 0 10 0;
#X connect 6 0 11 0;
#X connect 7 0 12 0;
#X connect 8 0 12 0;
#X connect 9 0 12 0;
#X connect 10 0 12 0;
#X connect 11 0 12 0;
#X connect 12 0 13 0;
#X restore 464 550 pd multiphasor;
#X obj 666 93 mtof;
#X floatatom 803 70 5 0 0 0 - - -, f 5;
#X obj 730 84 +;
#X obj 947 -19 nbx 5 14 -1e+37 1e+37 0 0 bi empty bp_interval 0 -8
2 10 -262144 -1 -1 3 256;
#X obj 743 60 r bi;
#X obj 665 33 receive fbang;
#X obj 804 94 mtof;
#X floatatom 923 69 5 0 0 0 - - -, f 5;
#X obj 859 72 +;
#X obj 872 48 r bi;
#X obj 925 92 mtof;
#X floatatom 1056 62 5 0 0 0 - - -, f 5;
#X obj 992 65 +;
#X obj 1005 41 r bi;
#X obj 1058 85 mtof;
#X floatatom 1177 69 5 0 0 0 - - -, f 5;
#X obj 1114 56 +;
#X obj 1127 32 r bi;
#X obj 1178 92 mtof;
#X floatatom 666 174 5 0 0 0 - - -, f 5;
#X obj 607 175 +;
#X obj 620 154 r bi;
#X obj 667 197 mtof;
#X floatatom 800 174 5 0 0 0 - - -, f 5;
#X obj 741 175 +;
#X obj 754 154 r bi;
#X obj 801 197 mtof;
#X floatatom 919 171 5 0 0 0 - - -, f 5;
#X obj 860 172 +;
#X obj 873 151 r bi;
#X obj 920 194 mtof;
#X floatatom 1055 172 5 0 0 0 - - -, f 5;
#X obj 996 173 +;
#X obj 1009 152 r bi;
#X obj 1056 195 mtof;
#X floatatom 1179 171 5 0 0 0 - - -, f 5;
#X obj 1120 172 +;
#X obj 1133 151 r bi;
#X obj 1180 194 mtof;
#X obj 946 6 s fbang;
#X floatatom 670 281 5 0 0 0 - - -, f 5;
#X obj 611 282 +;
#X obj 624 261 r bi;
#X obj 671 304 mtof;
#X floatatom 803 286 5 0 0 0 - - -, f 5;
#X obj 744 287 +;
#X obj 757 266 r bi;
#X obj 804 309 mtof;
#X floatatom 922 285 5 0 0 0 - - -, f 5;
#X obj 863 286 +;
#X obj 876 265 r bi;
#X obj 924 309 mtof;
#X floatatom 1055 288 5 0 0 0 - - -, f 5;
#X obj 996 289 +;
#X obj 1009 268 r bi;
#X obj 1056 311 mtof;
#X floatatom 1179 285 5 0 0 0 - - -, f 5;
#X obj 1120 286 +;
#X obj 1133 265 r bi;
#X obj 1180 308 mtof;
#X floatatom 669 397 5 0 0 0 - - -, f 5;
#X obj 610 398 +;
#X obj 623 377 r bi;
#X obj 670 420 mtof;
#X floatatom 803 406 5 0 0 0 - - -, f 5;
#X obj 744 407 +;
#X obj 757 386 r bi;
#X obj 804 429 mtof;
#X floatatom 925 405 5 0 0 0 - - -, f 5;
#X obj 866 406 +;
#X obj 879 385 r bi;
#X obj 926 428 mtof;
#X floatatom 1057 403 5 0 0 0 - - -, f 5;
#X obj 998 404 +;
#X obj 1011 383 r bi;
#X obj 1058 426 mtof;
#X floatatom 1179 398 5 0 0 0 - - -, f 5;
#X obj 1120 399 +;
#X obj 1133 378 r bi;
#X obj 1180 422 mtof;
#X floatatom 672 501 5 0 0 0 - - -, f 5;
#X obj 613 502 +;
#X obj 626 481 r bi;
#X obj 673 524 mtof;
#X floatatom 806 501 5 0 0 0 - - -, f 5;
#X obj 747 502 +;
#X obj 760 481 r bi;
#X obj 807 524 mtof;
#X floatatom 925 502 5 0 0 0 - - -, f 5;
#X obj 866 503 +;
#X obj 879 482 r bi;
#X obj 926 525 mtof;
#X floatatom 1059 503 5 0 0 0 - - -, f 5;
#X obj 1000 504 +;
#X obj 1013 483 r bi;
#X obj 1060 526 mtof;
#X floatatom 1179 504 5 0 0 0 - - -, f 5;
#X obj 1120 505 +;
#X obj 1133 484 r bi;
#X obj 1180 527 mtof;
#X msg 666 67 24;
#X obj 207 470 *~;
#X floatatom 255 463 5 0 0 0 - - -, f 5;
#X obj 435 526 hsl 128 15 0 127 0 0 empty empty empty -2 -8 0 10 -262144
-1 -1 4300 1;
#X floatatom 1241 525 5 0 0 0 - - -, f 5;
#X floatatom 1116 529 5 0 0 0 - - -, f 5;
#X floatatom 997 530 5 0 0 0 - - -, f 5;
#X floatatom 862 528 5 0 0 0 - - -, f 5;
#X floatatom 729 528 5 0 0 0 - - -, f 5;
#X floatatom 1236 423 5 0 0 0 - - -, f 5;
#X floatatom 1115 430 5 0 0 0 - - -, f 5;
#X floatatom 984 431 5 0 0 0 - - -, f 5;
#X floatatom 859 434 5 0 0 0 - - -, f 5;
#X floatatom 734 431 5 0 0 0 - - -, f 5;
#X floatatom 738 315 5 0 0 0 - - -, f 5;
#X floatatom 861 316 5 0 0 0 - - -, f 5;
#X floatatom 983 317 5 0 0 0 - - -, f 5;
#X floatatom 1114 316 5 0 0 0 - - -, f 5;
#X floatatom 1236 312 5 0 0 0 - - -, f 5;
#X floatatom 1234 196 5 0 0 0 - - -, f 5;
#X floatatom 1112 199 5 0 0 0 - - -, f 5;
#X floatatom 982 201 5 0 0 0 - - -, f 5;
#X floatatom 862 200 5 0 0 0 - - -, f 5;
#X floatatom 730 203 5 0 0 0 - - -, f 5;
#X floatatom 731 107 5 0 0 0 - - -, f 5;
#X floatatom 857 99 5 0 0 0 - - -, f 5;
#X floatatom 980 96 5 0 0 0 - - -, f 5;
#X floatatom 1110 92 5 0 0 0 - - -, f 5;
#X floatatom 1234 91 5 0 0 0 - - -, f 5;
#X obj 75 -6 openpanel;
#X text 251 5 Open \, Load files and play them;
#X obj 41 36 symbol;
#X msg 41 61 open \$1;
#X obj 351 359 send~ carrier;
#X obj 299 506 env~;
#X floatatom 304 560 5 0 0 0 - - -, f 5;
#X obj 517 213 noise~;
#X obj 545 248 vsl 15 128 0.001 5 1 0 empty empty empty 0 -9 0 10 -262144
-1 -1 0 1;
#X obj 477 261 *~;
#X floatatom 533 395 5 0 0 0 - - -, f 5;
#X obj 414 286 +~;
#X msg 443 139 open Carrier2.wav;
#X obj 662 126 filterbank;
#X msg 47 110 open ff.wav;
#X connect 0 0 1 0;
#X connect 2 0 0 0;
#X connect 3 0 0 0;
#X connect 4 0 193 0;
#X connect 5 0 4 0;
#X connect 6 0 4 0;
#X connect 7 0 2 0;
#X connect 7 1 196 0;
#X connect 7 2 5 0;
#X connect 7 3 194 0;
#X connect 10 0 154 0;
#X connect 13 0 3 0;
#X connect 13 1 6 0;
#X connect 14 0 13 0;
#X connect 16 0 7 0;
#X connect 16 1 44 0;
#X connect 17 0 16 0;
#X connect 44 0 43 0;
#X connect 45 0 46 0;
#X connect 47 0 8 0;
#X connect 48 0 47 0;
#X connect 49 0 186 0;
#X connect 50 0 49 0;
#X connect 50 0 51 0;
#X connect 53 0 177 0;
#X connect 53 0 195 0;
#X connect 54 0 59 0;
#X connect 54 0 61 0;
#X connect 55 0 54 0;
#X connect 56 0 92 0;
#X connect 57 0 55 1;
#X connect 58 0 153 0;
#X connect 59 0 20 0;
#X connect 59 0 178 0;
#X connect 60 0 63 0;
#X connect 60 0 65 0;
#X connect 61 0 60 0;
#X connect 62 0 61 1;
#X connect 63 0 19 0;
#X connect 63 0 179 0;
#X connect 64 0 67 0;
#X connect 64 0 69 0;
#X connect 65 0 64 0;
#X connect 66 0 65 1;
#X connect 67 0 21 0;
#X connect 67 0 180 0;
#X connect 68 0 71 0;
#X connect 68 0 73 0;
#X connect 69 0 68 0;
#X connect 70 0 69 1;
#X connect 71 0 22 0;
#X connect 71 0 181 0;
#X connect 72 0 75 0;
#X connect 72 0 77 0;
#X connect 73 0 72 0;
#X connect 74 0 73 1;
#X connect 75 0 23 0;
#X connect 75 0 176 0;
#X connect 76 0 79 0;
#X connect 76 0 81 0;
#X connect 77 0 76 0;
#X connect 78 0 77 1;
#X connect 79 0 24 0;
#X connect 79 0 175 0;
#X connect 80 0 83 0;
#X connect 80 0 85 0;
#X connect 81 0 80 0;
#X connect 82 0 81 1;
#X connect 83 0 25 0;
#X connect 83 0 174 0;
#X connect 84 0 87 0;
#X connect 84 0 89 0;
#X connect 85 0 84 0;
#X connect 86 0 85 1;
#X connect 87 0 26 0;
#X connect 87 0 173 0;
#X connect 88 0 91 0;
#X connect 88 0 94 0;
#X connect 89 0 88 0;
#X connect 90 0 89 1;
#X connect 91 0 27 0;
#X connect 91 0 172 0;
#X connect 93 0 96 0;
#X connect 93 0 98 0;
#X connect 94 0 93 0;
#X connect 95 0 94 1;
#X connect 96 0 28 0;
#X connect 96 0 167 0;
#X connect 97 0 100 0;
#X connect 97 0 102 0;
#X connect 98 0 97 0;
#X connect 99 0 98 1;
#X connect 100 0 29 0;
#X connect 100 0 168 0;
#X connect 101 0 104 0;
#X connect 101 0 106 0;
#X connect 102 0 101 0;
#X connect 103 0 102 1;
#X connect 104 0 30 0;
#X connect 104 0 169 0;
#X connect 105 0 108 0;
#X connect 105 0 110 0;
#X connect 106 0 105 0;
#X connect 107 0 106 1;
#X connect 108 0 31 0;
#X connect 108 0 170 0;
#X connect 109 0 112 0;
#X connect 109 0 114 0;
#X connect 110 0 109 0;
#X connect 111 0 110 1;
#X connect 112 0 32 0;
#X connect 112 0 171 0;
#X connect 113 0 116 0;
#X connect 113 0 118 0;
#X connect 114 0 113 0;
#X connect 115 0 114 1;
#X connect 116 0 33 0;
#X connect 116 0 166 0;
#X connect 117 0 120 0;
#X connect 117 0 122 0;
#X connect 118 0 117 0;
#X connect 119 0 118 1;
#X connect 120 0 34 0;
#X connect 120 0 165 0;
#X connect 121 0 124 0;
#X connect 121 0 126 0;
#X connect 122 0 121 0;
#X connect 123 0 122 1;
#X connect 124 0 35 0;
#X connect 124 0 164 0;
#X connect 125 0 128 0;
#X connect 125 0 130 0;
#X connect 126 0 125 0;
#X connect 127 0 126 1;
#X connect 128 0 36 0;
#X connect 128 0 163 0;
#X connect 129 0 132 0;
#X connect 129 0 134 0;
#X connect 130 0 129 0;
#X connect 131 0 130 1;
#X connect 132 0 37 0;
#X connect 132 0 162 0;
#X connect 133 0 136 0;
#X connect 133 0 138 0;
#X connect 134 0 133 0;
#X connect 135 0 134 1;
#X connect 136 0 38 0;
#X connect 136 0 161 0;
#X connect 137 0 140 0;
#X connect 137 0 142 0;
#X connect 138 0 137 0;
#X connect 139 0 138 1;
#X connect 140 0 39 0;
#X connect 140 0 160 0;
#X connect 141 0 144 0;
#X connect 141 0 146 0;
#X connect 142 0 141 0;
#X connect 143 0 142 1;
#X connect 144 0 40 0;
#X connect 144 0 159 0;
#X connect 145 0 148 0;
#X connect 145 0 150 0;
#X connect 146 0 145 0;
#X connect 147 0 146 1;
#X connect 148 0 41 0;
#X connect 148 0 158 0;
#X connect 149 0 152 0;
#X connect 150 0 149 0;
#X connect 151 0 150 1;
#X connect 152 0 42 0;
#X connect 152 0 157 0;
#X connect 153 0 53 0;
#X connect 153 0 55 0;
#X connect 154 0 11 0;
#X connect 154 0 11 1;
#X connect 154 0 187 0;
#X connect 155 0 154 1;
#X connect 156 0 50 0;
#X connect 182 0 184 1;
#X connect 184 0 185 0;
#X connect 187 0 188 0;
#X connect 189 0 191 0;
#X connect 190 0 191 1;
#X connect 190 0 192 0;
#X connect 191 0 193 1;
#X connect 194 0 4 0;
#X connect 196 0 0 0;
