#N canvas 275 236 262 425 10;
#X obj 50 67 receive~ modulator;
#X obj 50 135 bp~;
#X obj 220 137 bp~;
#X obj 77 88 receive freqBand_1;
#X obj 91 108 receive Q;
#X obj 260 92 receive freqBand_2;
#X obj 268 111 receive Q;
#X obj 220 68 receive~ modulator;
#X obj 390 72 receive~ modulator;
#X obj 390 140 bp~;
#X obj 551 139 bp~;
#X obj 431 112 receive Q;
#X obj 593 112 receive Q;
#X obj 551 70 receive~ modulator;
#X obj 48 362 receive~ modulator;
#X obj 48 429 bp~;
#X obj 209 428 bp~;
#X obj 63 405 receive Q;
#X obj 224 405 receive Q;
#X obj 209 360 receive~ modulator;
#X obj 348 363 receive~ modulator;
#X obj 348 430 bp~;
#X obj 509 429 bp~;
#X obj 363 406 receive Q;
#X obj 524 406 receive Q;
#X obj 509 361 receive~ modulator;
#X obj 710 139 bp~;
#X obj 763 113 receive Q;
#X obj 710 70 receive~ modulator;
#X obj 668 429 bp~;
#X obj 683 406 receive Q;
#X obj 668 361 receive~ modulator;
#X obj 423 91 receive freqBand_3;
#X obj 585 93 receive freqBand_4;
#X obj 755 94 receive freqBand_5;
#X obj 55 384 receive freqBand_6;
#X obj 216 379 receive freqBand_7;
#X obj 355 385 receive freqBand_8;
#X obj 516 387 receive freqBand_9;
#X obj 675 387 receive freqBand_10;
#X obj 45 637 receive~ modulator;
#X obj 45 705 bp~;
#X obj 206 704 bp~;
#X obj 60 678 receive Q;
#X obj 221 678 receive Q;
#X obj 206 635 receive~ modulator;
#X obj 345 638 receive~ modulator;
#X obj 345 706 bp~;
#X obj 506 705 bp~;
#X obj 360 679 receive Q;
#X obj 521 679 receive Q;
#X obj 506 636 receive~ modulator;
#X obj 665 705 bp~;
#X obj 680 679 receive Q;
#X obj 665 636 receive~ modulator;
#X obj 52 657 receive freqBand_11;
#X obj 213 659 receive freqBand_12;
#X obj 352 658 receive freqBand_13;
#X obj 513 660 receive freqBand_14;
#X obj 672 660 receive freqBand_15;
#X obj 49 899 receive~ modulator;
#X obj 49 966 bp~;
#X obj 210 965 bp~;
#X obj 64 942 receive Q;
#X obj 225 942 receive Q;
#X obj 210 897 receive~ modulator;
#X obj 349 900 receive~ modulator;
#X obj 349 967 bp~;
#X obj 510 966 bp~;
#X obj 364 943 receive Q;
#X obj 525 943 receive Q;
#X obj 510 898 receive~ modulator;
#X obj 669 966 bp~;
#X obj 684 943 receive Q;
#X obj 669 898 receive~ modulator;
#X obj 41 1165 receive~ modulator;
#X obj 41 1232 bp~;
#X obj 202 1231 bp~;
#X obj 56 1208 receive Q;
#X obj 217 1208 receive Q;
#X obj 202 1163 receive~ modulator;
#X obj 341 1166 receive~ modulator;
#X obj 341 1233 bp~;
#X obj 502 1232 bp~;
#X obj 356 1209 receive Q;
#X obj 517 1209 receive Q;
#X obj 502 1164 receive~ modulator;
#X obj 661 1232 bp~;
#X obj 676 1209 receive Q;
#X obj 661 1164 receive~ modulator;
#X obj 56 921 receive freqBand_16;
#X obj 217 923 receive freqBand_17;
#X obj 356 922 receive freqBand_18;
#X obj 517 924 receive freqBand_19;
#X obj 676 924 receive freqBand_20;
#X obj 48 1187 receive freqBand_21;
#X obj 209 1189 receive freqBand_22;
#X obj 348 1188 receive freqBand_23;
#X obj 509 1190 receive freqBand_24;
#X obj 668 1190 receive freqBand_25;
#X text 117 16 Filterbank and Envelope follower for the modulator;
#X obj 390 299 send~ envBand_3;
#X obj 551 297 send~ envBand_4;
#X obj 711 295 send~ envBand_5;
#X obj 48 612 send~ envBand_6;
#X obj 209 612 send~ envBand_7;
#X obj 348 613 send~ envBand_8;
#X obj 509 613 send~ envBand_9;
#X obj 668 613 send~ envBand_10;
#X obj 46 864 send~ envBand_11;
#X obj 207 864 send~ envBand_12;
#X obj 346 865 send~ envBand_13;
#X obj 507 865 send~ envBand_14;
#X obj 666 865 send~ envBand_15;
#X obj 47 1134 send~ envBand_16;
#X obj 208 1134 send~ envBand_17;
#X obj 347 1135 send~ envBand_18;
#X obj 508 1135 send~ envBand_19;
#X obj 667 1135 send~ envBand_20;
#X obj 41 1407 send~ envBand_21;
#X obj 202 1408 send~ envBand_22;
#X obj 341 1408 send~ envBand_23;
#X obj 502 1408 send~ envBand_24;
#X obj 661 1408 send~ envBand_25;
#X obj 50 190 env~ 1024;
#X obj 222 192 env~ 1024;
#X obj 391 190 env~ 1024;
#X obj 552 190 env~ 1024;
#X obj 712 186 env~ 1024;
#X obj 45 477 env~ 1024;
#X obj 206 476 env~ 1024;
#X obj 345 478 env~ 1024;
#X obj 506 477 env~ 1024;
#X obj 665 478 env~ 1024;
#X obj 45 752 env~ 1024;
#X obj 206 751 env~ 1024;
#X obj 345 753 env~ 1024;
#X obj 506 752 env~ 1024;
#X obj 665 752 env~ 1024;
#X obj 47 1019 env~ 1024;
#X obj 208 1018 env~ 1024;
#X obj 347 1020 env~ 1024;
#X obj 508 1019 env~ 1024;
#X obj 667 1019 env~ 1024;
#X obj 41 1291 env~ 1024;
#X obj 202 1290 env~ 1024;
#X obj 341 1292 env~ 1024;
#X obj 502 1291 env~ 1024;
#X obj 660 1293 env~ 1024;
#X obj 220 277 dbtorms~;
#X obj 390 277 dbtorms~;
#X obj 551 275 dbtorms~;
#X obj 711 271 dbtorms~;
#X obj 47 588 dbtorms~;
#X obj 209 588 dbtorms~;
#X obj 348 586 dbtorms~;
#X obj 509 587 dbtorms~;
#X obj 668 588 dbtorms~;
#X obj 46 841 dbtorms~;
#X obj 207 842 dbtorms~;
#X obj 346 842 dbtorms~;
#X obj 507 843 dbtorms~;
#X obj 666 843 dbtorms~;
#X obj 47 1111 dbtorms~;
#X obj 208 1110 dbtorms~;
#X obj 347 1112 dbtorms~;
#X obj 508 1110 dbtorms~;
#X obj 667 1111 dbtorms~;
#X obj 41 1382 dbtorms~;
#X obj 202 1382 dbtorms~;
#X obj 341 1385 dbtorms~;
#X obj 502 1384 dbtorms~;
#X obj 661 1386 dbtorms~;
#X obj 50 281 dbtorms~;
#X obj 50 305 send~ envBand_1;
#X obj 220 300 send~ envBand_2;
#X obj 709 163 bp~;
#X obj 50 167 bp~;
#X obj 221 165 bp~;
#X obj 390 169 bp~;
#X obj 551 167 bp~;
#X obj 668 451 bp~;
#X obj 46 454 bp~;
#X obj 210 452 bp~;
#X obj 349 456 bp~;
#X obj 509 455 bp~;
#X obj 666 727 bp~;
#X obj 44 730 bp~;
#X obj 208 728 bp~;
#X obj 347 732 bp~;
#X obj 507 731 bp~;
#X obj 670 992 bp~;
#X obj 48 995 bp~;
#X obj 212 993 bp~;
#X obj 351 997 bp~;
#X obj 511 996 bp~;
#X obj 661 1263 bp~;
#X obj 39 1266 bp~;
#X obj 203 1264 bp~;
#X obj 342 1268 bp~;
#X obj 502 1267 bp~;
#X msg 50 219 \$1 20;
#X msg 390 218 \$1 20;
#X msg 223 220 \$1 20;
#X msg 711 215 \$1 20;
#X msg 553 219 \$1 20;
#X msg 48 504 \$1 20;
#X msg 350 507 \$1 20;
#X msg 212 505 \$1 20;
#X msg 669 506 \$1 20;
#X msg 508 507 \$1 20;
#X msg 46 776 \$1 20;
#X msg 348 779 \$1 20;
#X msg 210 777 \$1 20;
#X msg 667 778 \$1 20;
#X msg 506 779 \$1 20;
#X msg 348 1050 \$1 20;
#X msg 210 1048 \$1 20;
#X msg 667 1049 \$1 20;
#X msg 506 1050 \$1 20;
#X msg 46 1047 \$1 20;
#X msg 344 1321 \$1 20;
#X msg 206 1319 \$1 20;
#X msg 663 1320 \$1 20;
#X msg 502 1321 \$1 20;
#X msg 42 1318 \$1 20;
#X obj 217 247 line~;
#X obj 49 253 line~;
#X obj 388 250 line~;
#X obj 713 242 line~;
#X obj 554 247 line~;
#X obj 212 552 line~;
#X obj 43 551 line~;
#X obj 349 550 line~;
#X obj 675 551 line~;
#X obj 511 551 line~;
#X obj 215 813 line~;
#X obj 46 812 line~;
#X obj 352 811 line~;
#X obj 678 812 line~;
#X obj 514 812 line~;
#X obj 216 1080 line~;
#X obj 47 1079 line~;
#X obj 353 1078 line~;
#X obj 679 1079 line~;
#X obj 515 1079 line~;
#X obj 206 1352 line~;
#X obj 37 1351 line~;
#X obj 343 1350 line~;
#X obj 669 1351 line~;
#X obj 505 1351 line~;
#X connect 0 0 1 0;
#X connect 1 0 177 0;
#X connect 2 0 178 0;
#X connect 3 0 1 1;
#X connect 3 0 177 1;
#X connect 4 0 1 2;
#X connect 4 0 177 2;
#X connect 5 0 2 1;
#X connect 5 0 178 1;
#X connect 6 0 2 2;
#X connect 6 0 178 2;
#X connect 7 0 2 0;
#X connect 8 0 9 0;
#X connect 9 0 179 0;
#X connect 10 0 180 0;
#X connect 11 0 9 2;
#X connect 11 0 179 2;
#X connect 12 0 10 2;
#X connect 12 0 180 2;
#X connect 13 0 10 0;
#X connect 14 0 15 0;
#X connect 15 0 182 0;
#X connect 16 0 183 0;
#X connect 17 0 15 2;
#X connect 17 0 182 2;
#X connect 18 0 16 2;
#X connect 18 0 183 2;
#X connect 19 0 16 0;
#X connect 20 0 21 0;
#X connect 21 0 184 0;
#X connect 22 0 185 0;
#X connect 23 0 21 2;
#X connect 23 0 184 2;
#X connect 24 0 22 2;
#X connect 24 0 185 2;
#X connect 25 0 22 0;
#X connect 26 0 176 0;
#X connect 27 0 26 2;
#X connect 27 0 176 2;
#X connect 28 0 26 0;
#X connect 29 0 181 0;
#X connect 30 0 29 2;
#X connect 30 0 181 2;
#X connect 31 0 29 0;
#X connect 32 0 9 1;
#X connect 32 0 179 1;
#X connect 33 0 10 1;
#X connect 33 0 180 1;
#X connect 34 0 26 1;
#X connect 34 0 176 1;
#X connect 35 0 15 1;
#X connect 35 0 182 1;
#X connect 36 0 16 1;
#X connect 36 0 183 1;
#X connect 37 0 21 1;
#X connect 37 0 184 1;
#X connect 38 0 22 1;
#X connect 38 0 185 1;
#X connect 39 0 29 1;
#X connect 39 0 181 1;
#X connect 40 0 41 0;
#X connect 41 0 187 0;
#X connect 42 0 188 0;
#X connect 43 0 41 2;
#X connect 43 0 187 2;
#X connect 44 0 42 2;
#X connect 44 0 188 2;
#X connect 45 0 42 0;
#X connect 46 0 47 0;
#X connect 47 0 189 0;
#X connect 48 0 190 0;
#X connect 49 0 47 2;
#X connect 49 0 189 2;
#X connect 50 0 48 2;
#X connect 50 0 190 2;
#X connect 51 0 48 0;
#X connect 52 0 186 0;
#X connect 53 0 52 2;
#X connect 53 0 186 2;
#X connect 54 0 52 0;
#X connect 55 0 41 1;
#X connect 55 0 187 1;
#X connect 56 0 42 1;
#X connect 56 0 188 1;
#X connect 57 0 47 1;
#X connect 57 0 189 1;
#X connect 58 0 48 1;
#X connect 58 0 190 1;
#X connect 59 0 52 1;
#X connect 59 0 186 1;
#X connect 60 0 61 0;
#X connect 61 0 192 0;
#X connect 62 0 193 0;
#X connect 63 0 61 2;
#X connect 63 0 192 2;
#X connect 64 0 62 2;
#X connect 64 0 193 2;
#X connect 65 0 62 0;
#X connect 66 0 67 0;
#X connect 67 0 194 0;
#X connect 68 0 195 0;
#X connect 69 0 67 2;
#X connect 69 0 194 2;
#X connect 70 0 68 2;
#X connect 70 0 195 2;
#X connect 71 0 68 0;
#X connect 72 0 191 0;
#X connect 73 0 72 2;
#X connect 73 0 191 2;
#X connect 74 0 72 0;
#X connect 75 0 76 0;
#X connect 76 0 197 0;
#X connect 77 0 198 0;
#X connect 78 0 76 2;
#X connect 78 0 197 2;
#X connect 79 0 77 2;
#X connect 79 0 198 2;
#X connect 80 0 77 0;
#X connect 81 0 82 0;
#X connect 82 0 199 0;
#X connect 83 0 200 0;
#X connect 84 0 82 2;
#X connect 84 0 199 2;
#X connect 85 0 83 2;
#X connect 85 0 200 2;
#X connect 86 0 83 0;
#X connect 87 0 196 0;
#X connect 88 0 87 2;
#X connect 88 0 196 2;
#X connect 89 0 87 0;
#X connect 90 0 61 1;
#X connect 90 0 192 1;
#X connect 91 0 62 1;
#X connect 91 0 193 1;
#X connect 92 0 67 1;
#X connect 92 0 194 1;
#X connect 93 0 68 1;
#X connect 93 0 195 1;
#X connect 94 0 72 1;
#X connect 94 0 191 1;
#X connect 95 0 76 1;
#X connect 95 0 197 1;
#X connect 96 0 77 1;
#X connect 96 0 198 1;
#X connect 97 0 82 1;
#X connect 97 0 199 1;
#X connect 98 0 83 1;
#X connect 98 0 200 1;
#X connect 99 0 87 1;
#X connect 99 0 196 1;
#X connect 124 0 201 0;
#X connect 125 0 203 0;
#X connect 126 0 202 0;
#X connect 127 0 205 0;
#X connect 128 0 204 0;
#X connect 129 0 206 0;
#X connect 130 0 208 0;
#X connect 131 0 207 0;
#X connect 132 0 210 0;
#X connect 133 0 209 0;
#X connect 134 0 211 0;
#X connect 135 0 213 0;
#X connect 136 0 212 0;
#X connect 137 0 215 0;
#X connect 138 0 214 0;
#X connect 139 0 220 0;
#X connect 140 0 217 0;
#X connect 141 0 216 0;
#X connect 142 0 219 0;
#X connect 143 0 218 0;
#X connect 144 0 225 0;
#X connect 145 0 222 0;
#X connect 146 0 221 0;
#X connect 147 0 224 0;
#X connect 148 0 223 0;
#X connect 149 0 175 0;
#X connect 150 0 101 0;
#X connect 151 0 102 0;
#X connect 152 0 103 0;
#X connect 153 0 104 0;
#X connect 154 0 105 0;
#X connect 155 0 106 0;
#X connect 156 0 107 0;
#X connect 157 0 108 0;
#X connect 158 0 109 0;
#X connect 159 0 110 0;
#X connect 160 0 111 0;
#X connect 161 0 112 0;
#X connect 162 0 113 0;
#X connect 163 0 114 0;
#X connect 164 0 115 0;
#X connect 165 0 116 0;
#X connect 166 0 117 0;
#X connect 167 0 118 0;
#X connect 168 0 119 0;
#X connect 169 0 120 0;
#X connect 170 0 121 0;
#X connect 171 0 122 0;
#X connect 172 0 123 0;
#X connect 173 0 174 0;
#X connect 176 0 128 0;
#X connect 177 0 124 0;
#X connect 178 0 125 0;
#X connect 179 0 126 0;
#X connect 180 0 127 0;
#X connect 181 0 133 0;
#X connect 182 0 129 0;
#X connect 183 0 130 0;
#X connect 184 0 131 0;
#X connect 185 0 132 0;
#X connect 186 0 138 0;
#X connect 187 0 134 0;
#X connect 188 0 135 0;
#X connect 189 0 136 0;
#X connect 190 0 137 0;
#X connect 191 0 143 0;
#X connect 192 0 139 0;
#X connect 193 0 140 0;
#X connect 194 0 141 0;
#X connect 195 0 142 0;
#X connect 196 0 148 0;
#X connect 197 0 144 0;
#X connect 198 0 145 0;
#X connect 199 0 146 0;
#X connect 200 0 147 0;
#X connect 201 0 227 0;
#X connect 202 0 228 0;
#X connect 203 0 226 0;
#X connect 204 0 229 0;
#X connect 205 0 230 0;
#X connect 206 0 232 0;
#X connect 207 0 233 0;
#X connect 208 0 231 0;
#X connect 209 0 234 0;
#X connect 210 0 235 0;
#X connect 211 0 237 0;
#X connect 212 0 238 0;
#X connect 213 0 236 0;
#X connect 214 0 239 0;
#X connect 215 0 240 0;
#X connect 216 0 243 0;
#X connect 217 0 241 0;
#X connect 218 0 244 0;
#X connect 219 0 245 0;
#X connect 220 0 242 0;
#X connect 221 0 248 0;
#X connect 222 0 246 0;
#X connect 223 0 249 0;
#X connect 224 0 250 0;
#X connect 225 0 247 0;
#X connect 226 0 149 0;
#X connect 227 0 173 0;
#X connect 228 0 150 0;
#X connect 229 0 152 0;
#X connect 230 0 151 0;
#X connect 231 0 154 0;
#X connect 232 0 153 0;
#X connect 233 0 155 0;
#X connect 234 0 157 0;
#X connect 235 0 156 0;
#X connect 236 0 159 0;
#X connect 237 0 158 0;
#X connect 238 0 160 0;
#X connect 239 0 162 0;
#X connect 240 0 161 0;
#X connect 241 0 164 0;
#X connect 242 0 163 0;
#X connect 243 0 165 0;
#X connect 244 0 167 0;
#X connect 245 0 166 0;
#X connect 246 0 169 0;
#X connect 247 0 168 0;
#X connect 248 0 170 0;
#X connect 249 0 172 0;
#X connect 250 0 171 0;
