#N canvas 660 106 718 666 10;
#X obj 44 503 catch~ sum;
#X obj 43 576 dac~;
#N canvas 0 22 470 320 bandvocoder 0;
#N canvas 114 82 474 324 bandanalysis 0;
#X obj 198 130 bp~;
#X obj 197 168 bp~;
#X obj 155 92 inlet~;
#X obj 217 74 inlet;
#X obj 199 192 env~ 1024;
#X obj 198 245 line~;
#X obj 197 272 outlet~;
#X obj 234 109 r q;
#X msg 198 220 \$1 23;
#X connect 0 0 1 0;
#X connect 1 0 4 0;
#X connect 2 0 0 0;
#X connect 3 0 0 1;
#X connect 3 0 1 1;
#X connect 4 0 8 0;
#X connect 5 0 6 0;
#X connect 7 0 0 2;
#X connect 7 0 1 2;
#X connect 8 0 5 0;
#X restore 55 67 pd bandanalysis;
#N canvas 350 116 466 316 bandprocessing 0;
#X obj 144 82 bp~;
#X obj 143 119 bp~;
#X obj 126 22 inlet~;
#X obj 184 22 inlet;
#X obj 145 165 outlet~;
#X obj 204 52 r q;
#X connect 0 0 1 0;
#X connect 1 0 4 0;
#X connect 2 0 0 0;
#X connect 3 0 0 1;
#X connect 3 0 1 1;
#X connect 5 0 0 2;
#X connect 5 0 1 2;
#X restore 184 83 pd bandprocessing;
#X obj 141 175 throw~ sum;
#X obj 139 143 *~;
#X obj 72 118 dbtorms~;
#X obj 55 43 r~ soundfile;
#X obj 183 59 r~ synth;
#X obj 161 36 mtof;
#X obj 161 13 inlet;
#X connect 0 0 4 0;
#X connect 1 0 3 1;
#X connect 3 0 2 0;
#X connect 4 0 3 0;
#X connect 5 0 0 0;
#X connect 6 0 1 0;
#X connect 7 0 0 1;
#X connect 7 0 1 1;
#X connect 8 0 7 0;
#X restore 240 227 pd bandvocoder;
#X obj 351 148 s~ synth;
#X msg 240 208 24;
#X obj 240 189 loadbang;
#N canvas 0 22 466 316 bandvocoder 0;
#N canvas 0 22 470 320 bandanalysis 0;
#X obj 198 130 bp~;
#X obj 197 168 bp~;
#X obj 155 92 inlet~;
#X obj 217 74 inlet;
#X obj 199 192 env~ 1024;
#X obj 198 245 line~;
#X obj 197 272 outlet~;
#X obj 234 109 r q;
#X msg 198 220 \$1 23;
#X connect 0 0 1 0;
#X connect 1 0 4 0;
#X connect 2 0 0 0;
#X connect 3 0 0 1;
#X connect 3 0 1 1;
#X connect 4 0 8 0;
#X connect 5 0 6 0;
#X connect 7 0 0 2;
#X connect 7 0 1 2;
#X connect 8 0 5 0;
#X restore 55 67 pd bandanalysis;
#N canvas 350 116 462 312 bandprocessing 0;
#X obj 144 82 bp~;
#X obj 143 119 bp~;
#X obj 126 22 inlet~;
#X obj 184 22 inlet;
#X obj 145 165 outlet~;
#X obj 204 52 r q;
#X connect 0 0 1 0;
#X connect 1 0 4 0;
#X connect 2 0 0 0;
#X connect 3 0 0 1;
#X connect 3 0 1 1;
#X connect 5 0 0 2;
#X connect 5 0 1 2;
#X restore 184 83 pd bandprocessing;
#X obj 141 175 throw~ sum;
#X obj 139 143 *~;
#X obj 72 118 dbtorms~;
#X obj 55 43 r~ soundfile;
#X obj 183 59 r~ synth;
#X obj 161 36 mtof;
#X obj 161 13 inlet;
#X connect 0 0 4 0;
#X connect 1 0 3 1;
#X connect 3 0 2 0;
#X connect 4 0 3 0;
#X connect 5 0 0 0;
#X connect 6 0 1 0;
#X connect 7 0 0 1;
#X connect 7 0 1 1;
#X connect 8 0 7 0;
#X restore 344 227 pd bandvocoder;
#X obj 344 189 loadbang;
#N canvas 0 22 466 316 bandvocoder 0;
#N canvas 0 22 470 320 bandanalysis 0;
#X obj 198 130 bp~;
#X obj 197 168 bp~;
#X obj 155 92 inlet~;
#X obj 217 74 inlet;
#X obj 199 192 env~ 1024;
#X obj 198 245 line~;
#X obj 197 272 outlet~;
#X obj 234 109 r q;
#X msg 198 220 \$1 23;
#X connect 0 0 1 0;
#X connect 1 0 4 0;
#X connect 2 0 0 0;
#X connect 3 0 0 1;
#X connect 3 0 1 1;
#X connect 4 0 8 0;
#X connect 5 0 6 0;
#X connect 7 0 0 2;
#X connect 7 0 1 2;
#X connect 8 0 5 0;
#X restore 55 67 pd bandanalysis;
#N canvas 350 116 462 312 bandprocessing 0;
#X obj 144 82 bp~;
#X obj 143 119 bp~;
#X obj 126 22 inlet~;
#X obj 184 22 inlet;
#X obj 145 165 outlet~;
#X obj 204 52 r q;
#X connect 0 0 1 0;
#X connect 1 0 4 0;
#X connect 2 0 0 0;
#X connect 3 0 0 1;
#X connect 3 0 1 1;
#X connect 5 0 0 2;
#X connect 5 0 1 2;
#X restore 184 83 pd bandprocessing;
#X obj 141 175 throw~ sum;
#X obj 139 143 *~;
#X obj 72 118 dbtorms~;
#X obj 55 43 r~ soundfile;
#X obj 183 59 r~ synth;
#X obj 161 36 mtof;
#X obj 161 13 inlet;
#X connect 0 0 4 0;
#X connect 1 0 3 1;
#X connect 3 0 2 0;
#X connect 4 0 3 0;
#X connect 5 0 0 0;
#X connect 6 0 1 0;
#X connect 7 0 0 1;
#X connect 7 0 1 1;
#X connect 8 0 7 0;
#X restore 447 227 pd bandvocoder;
#X obj 447 189 loadbang;
#N canvas 0 22 466 316 bandvocoder 0;
#N canvas 0 22 470 320 bandanalysis 0;
#X obj 198 130 bp~;
#X obj 197 168 bp~;
#X obj 155 92 inlet~;
#X obj 217 74 inlet;
#X obj 199 192 env~ 1024;
#X obj 198 245 line~;
#X obj 197 272 outlet~;
#X obj 234 109 r q;
#X msg 198 220 \$1 23;
#X connect 0 0 1 0;
#X connect 1 0 4 0;
#X connect 2 0 0 0;
#X connect 3 0 0 1;
#X connect 3 0 1 1;
#X connect 4 0 8 0;
#X connect 5 0 6 0;
#X connect 7 0 0 2;
#X connect 7 0 1 2;
#X connect 8 0 5 0;
#X restore 55 67 pd bandanalysis;
#N canvas 350 116 462 312 bandprocessing 0;
#X obj 144 82 bp~;
#X obj 143 119 bp~;
#X obj 126 22 inlet~;
#X obj 184 22 inlet;
#X obj 145 165 outlet~;
#X obj 204 52 r q;
#X connect 0 0 1 0;
#X connect 1 0 4 0;
#X connect 2 0 0 0;
#X connect 3 0 0 1;
#X connect 3 0 1 1;
#X connect 5 0 0 2;
#X connect 5 0 1 2;
#X restore 184 83 pd bandprocessing;
#X obj 141 175 throw~ sum;
#X obj 139 143 *~;
#X obj 72 118 dbtorms~;
#X obj 55 43 r~ soundfile;
#X obj 183 59 r~ synth;
#X obj 161 36 mtof;
#X obj 161 13 inlet;
#X connect 0 0 4 0;
#X connect 1 0 3 1;
#X connect 3 0 2 0;
#X connect 4 0 3 0;
#X connect 5 0 0 0;
#X connect 6 0 1 0;
#X connect 7 0 0 1;
#X connect 7 0 1 1;
#X connect 8 0 7 0;
#X restore 551 227 pd bandvocoder;
#X obj 551 189 loadbang;
#N canvas 0 22 466 316 bandvocoder 0;
#N canvas 0 22 470 320 bandanalysis 0;
#X obj 198 130 bp~;
#X obj 197 168 bp~;
#X obj 155 92 inlet~;
#X obj 217 74 inlet;
#X obj 199 192 env~ 1024;
#X obj 198 245 line~;
#X obj 197 272 outlet~;
#X obj 234 109 r q;
#X msg 198 220 \$1 23;
#X connect 0 0 1 0;
#X connect 1 0 4 0;
#X connect 2 0 0 0;
#X connect 3 0 0 1;
#X connect 3 0 1 1;
#X connect 4 0 8 0;
#X connect 5 0 6 0;
#X connect 7 0 0 2;
#X connect 7 0 1 2;
#X connect 8 0 5 0;
#X restore 55 67 pd bandanalysis;
#N canvas 350 116 462 312 bandprocessing 0;
#X obj 144 82 bp~;
#X obj 143 119 bp~;
#X obj 126 22 inlet~;
#X obj 184 22 inlet;
#X obj 145 165 outlet~;
#X obj 204 52 r q;
#X connect 0 0 1 0;
#X connect 1 0 4 0;
#X connect 2 0 0 0;
#X connect 3 0 0 1;
#X connect 3 0 1 1;
#X connect 5 0 0 2;
#X connect 5 0 1 2;
#X restore 184 83 pd bandprocessing;
#X obj 141 175 throw~ sum;
#X obj 139 143 *~;
#X obj 72 118 dbtorms~;
#X obj 55 43 r~ soundfile;
#X obj 183 59 r~ synth;
#X obj 161 36 mtof;
#X obj 161 13 inlet;
#X connect 0 0 4 0;
#X connect 1 0 3 1;
#X connect 3 0 2 0;
#X connect 4 0 3 0;
#X connect 5 0 0 0;
#X connect 6 0 1 0;
#X connect 7 0 0 1;
#X connect 7 0 1 1;
#X connect 8 0 7 0;
#X restore 239 287 pd bandvocoder;
#X obj 239 249 loadbang;
#N canvas 0 22 466 316 bandvocoder 0;
#N canvas 0 22 470 320 bandanalysis 0;
#X obj 198 130 bp~;
#X obj 197 168 bp~;
#X obj 155 92 inlet~;
#X obj 217 74 inlet;
#X obj 199 192 env~ 1024;
#X obj 198 245 line~;
#X obj 197 272 outlet~;
#X obj 234 109 r q;
#X msg 198 220 \$1 23;
#X connect 0 0 1 0;
#X connect 1 0 4 0;
#X connect 2 0 0 0;
#X connect 3 0 0 1;
#X connect 3 0 1 1;
#X connect 4 0 8 0;
#X connect 5 0 6 0;
#X connect 7 0 0 2;
#X connect 7 0 1 2;
#X connect 8 0 5 0;
#X restore 55 67 pd bandanalysis;
#N canvas 350 116 462 312 bandprocessing 0;
#X obj 144 82 bp~;
#X obj 143 119 bp~;
#X obj 126 22 inlet~;
#X obj 184 22 inlet;
#X obj 145 165 outlet~;
#X obj 204 52 r q;
#X connect 0 0 1 0;
#X connect 1 0 4 0;
#X connect 2 0 0 0;
#X connect 3 0 0 1;
#X connect 3 0 1 1;
#X connect 5 0 0 2;
#X connect 5 0 1 2;
#X restore 184 83 pd bandprocessing;
#X obj 141 175 throw~ sum;
#X obj 139 143 *~;
#X obj 72 118 dbtorms~;
#X obj 55 43 r~ soundfile;
#X obj 183 59 r~ synth;
#X obj 161 36 mtof;
#X obj 161 13 inlet;
#X connect 0 0 4 0;
#X connect 1 0 3 1;
#X connect 3 0 2 0;
#X connect 4 0 3 0;
#X connect 5 0 0 0;
#X connect 6 0 1 0;
#X connect 7 0 0 1;
#X connect 7 0 1 1;
#X connect 8 0 7 0;
#X restore 343 287 pd bandvocoder;
#X obj 343 249 loadbang;
#N canvas 0 22 466 316 bandvocoder 0;
#N canvas 0 22 470 320 bandanalysis 0;
#X obj 198 130 bp~;
#X obj 197 168 bp~;
#X obj 155 92 inlet~;
#X obj 217 74 inlet;
#X obj 199 192 env~ 1024;
#X obj 198 245 line~;
#X obj 197 272 outlet~;
#X obj 234 109 r q;
#X msg 198 220 \$1 23;
#X connect 0 0 1 0;
#X connect 1 0 4 0;
#X connect 2 0 0 0;
#X connect 3 0 0 1;
#X connect 3 0 1 1;
#X connect 4 0 8 0;
#X connect 5 0 6 0;
#X connect 7 0 0 2;
#X connect 7 0 1 2;
#X connect 8 0 5 0;
#X restore 55 67 pd bandanalysis;
#N canvas 350 116 462 312 bandprocessing 0;
#X obj 144 82 bp~;
#X obj 143 119 bp~;
#X obj 126 22 inlet~;
#X obj 184 22 inlet;
#X obj 145 165 outlet~;
#X obj 204 52 r q;
#X connect 0 0 1 0;
#X connect 1 0 4 0;
#X connect 2 0 0 0;
#X connect 3 0 0 1;
#X connect 3 0 1 1;
#X connect 5 0 0 2;
#X connect 5 0 1 2;
#X restore 184 83 pd bandprocessing;
#X obj 141 175 throw~ sum;
#X obj 139 143 *~;
#X obj 72 118 dbtorms~;
#X obj 55 43 r~ soundfile;
#X obj 183 59 r~ synth;
#X obj 161 36 mtof;
#X obj 161 13 inlet;
#X connect 0 0 4 0;
#X connect 1 0 3 1;
#X connect 3 0 2 0;
#X connect 4 0 3 0;
#X connect 5 0 0 0;
#X connect 6 0 1 0;
#X connect 7 0 0 1;
#X connect 7 0 1 1;
#X connect 8 0 7 0;
#X restore 446 287 pd bandvocoder;
#X obj 446 249 loadbang;
#N canvas 0 22 466 316 bandvocoder 0;
#N canvas 0 22 470 320 bandanalysis 0;
#X obj 198 130 bp~;
#X obj 197 168 bp~;
#X obj 155 92 inlet~;
#X obj 217 74 inlet;
#X obj 199 192 env~ 1024;
#X obj 198 245 line~;
#X obj 197 272 outlet~;
#X obj 234 109 r q;
#X msg 198 220 \$1 23;
#X connect 0 0 1 0;
#X connect 1 0 4 0;
#X connect 2 0 0 0;
#X connect 3 0 0 1;
#X connect 3 0 1 1;
#X connect 4 0 8 0;
#X connect 5 0 6 0;
#X connect 7 0 0 2;
#X connect 7 0 1 2;
#X connect 8 0 5 0;
#X restore 55 67 pd bandanalysis;
#N canvas 350 116 462 312 bandprocessing 0;
#X obj 144 82 bp~;
#X obj 143 119 bp~;
#X obj 126 22 inlet~;
#X obj 184 22 inlet;
#X obj 145 165 outlet~;
#X obj 204 52 r q;
#X connect 0 0 1 0;
#X connect 1 0 4 0;
#X connect 2 0 0 0;
#X connect 3 0 0 1;
#X connect 3 0 1 1;
#X connect 5 0 0 2;
#X connect 5 0 1 2;
#X restore 184 83 pd bandprocessing;
#X obj 141 175 throw~ sum;
#X obj 139 143 *~;
#X obj 72 118 dbtorms~;
#X obj 55 43 r~ soundfile;
#X obj 183 59 r~ synth;
#X obj 161 36 mtof;
#X obj 161 13 inlet;
#X connect 0 0 4 0;
#X connect 1 0 3 1;
#X connect 3 0 2 0;
#X connect 4 0 3 0;
#X connect 5 0 0 0;
#X connect 6 0 1 0;
#X connect 7 0 0 1;
#X connect 7 0 1 1;
#X connect 8 0 7 0;
#X restore 550 287 pd bandvocoder;
#X obj 550 249 loadbang;
#N canvas 0 22 466 316 bandvocoder 0;
#N canvas 0 22 470 320 bandanalysis 0;
#X obj 198 130 bp~;
#X obj 197 168 bp~;
#X obj 155 92 inlet~;
#X obj 217 74 inlet;
#X obj 199 192 env~ 1024;
#X obj 198 245 line~;
#X obj 197 272 outlet~;
#X obj 234 109 r q;
#X msg 198 220 \$1 23;
#X connect 0 0 1 0;
#X connect 1 0 4 0;
#X connect 2 0 0 0;
#X connect 3 0 0 1;
#X connect 3 0 1 1;
#X connect 4 0 8 0;
#X connect 5 0 6 0;
#X connect 7 0 0 2;
#X connect 7 0 1 2;
#X connect 8 0 5 0;
#X restore 55 67 pd bandanalysis;
#N canvas 350 116 462 312 bandprocessing 0;
#X obj 144 82 bp~;
#X obj 143 119 bp~;
#X obj 126 22 inlet~;
#X obj 184 22 inlet;
#X obj 145 165 outlet~;
#X obj 204 52 r q;
#X connect 0 0 1 0;
#X connect 1 0 4 0;
#X connect 2 0 0 0;
#X connect 3 0 0 1;
#X connect 3 0 1 1;
#X connect 5 0 0 2;
#X connect 5 0 1 2;
#X restore 184 83 pd bandprocessing;
#X obj 141 175 throw~ sum;
#X obj 139 143 *~;
#X obj 72 118 dbtorms~;
#X obj 55 43 r~ soundfile;
#X obj 183 59 r~ synth;
#X obj 161 36 mtof;
#X obj 161 13 inlet;
#X connect 0 0 4 0;
#X connect 1 0 3 1;
#X connect 3 0 2 0;
#X connect 4 0 3 0;
#X connect 5 0 0 0;
#X connect 6 0 1 0;
#X connect 7 0 0 1;
#X connect 7 0 1 1;
#X connect 8 0 7 0;
#X restore 238 347 pd bandvocoder;
#X obj 238 309 loadbang;
#N canvas 0 22 466 316 bandvocoder 0;
#N canvas 0 22 470 320 bandanalysis 0;
#X obj 198 130 bp~;
#X obj 197 168 bp~;
#X obj 155 92 inlet~;
#X obj 217 74 inlet;
#X obj 199 192 env~ 1024;
#X obj 198 245 line~;
#X obj 197 272 outlet~;
#X obj 234 109 r q;
#X msg 198 220 \$1 23;
#X connect 0 0 1 0;
#X connect 1 0 4 0;
#X connect 2 0 0 0;
#X connect 3 0 0 1;
#X connect 3 0 1 1;
#X connect 4 0 8 0;
#X connect 5 0 6 0;
#X connect 7 0 0 2;
#X connect 7 0 1 2;
#X connect 8 0 5 0;
#X restore 55 67 pd bandanalysis;
#N canvas 350 116 462 312 bandprocessing 0;
#X obj 144 82 bp~;
#X obj 143 119 bp~;
#X obj 126 22 inlet~;
#X obj 184 22 inlet;
#X obj 145 165 outlet~;
#X obj 204 52 r q;
#X connect 0 0 1 0;
#X connect 1 0 4 0;
#X connect 2 0 0 0;
#X connect 3 0 0 1;
#X connect 3 0 1 1;
#X connect 5 0 0 2;
#X connect 5 0 1 2;
#X restore 184 83 pd bandprocessing;
#X obj 141 175 throw~ sum;
#X obj 139 143 *~;
#X obj 72 118 dbtorms~;
#X obj 55 43 r~ soundfile;
#X obj 183 59 r~ synth;
#X obj 161 36 mtof;
#X obj 161 13 inlet;
#X connect 0 0 4 0;
#X connect 1 0 3 1;
#X connect 3 0 2 0;
#X connect 4 0 3 0;
#X connect 5 0 0 0;
#X connect 6 0 1 0;
#X connect 7 0 0 1;
#X connect 7 0 1 1;
#X connect 8 0 7 0;
#X restore 342 347 pd bandvocoder;
#X obj 342 309 loadbang;
#N canvas 0 22 466 316 bandvocoder 0;
#N canvas 0 22 470 320 bandanalysis 0;
#X obj 198 130 bp~;
#X obj 197 168 bp~;
#X obj 155 92 inlet~;
#X obj 217 74 inlet;
#X obj 199 192 env~ 1024;
#X obj 198 245 line~;
#X obj 197 272 outlet~;
#X obj 234 109 r q;
#X msg 198 220 \$1 23;
#X connect 0 0 1 0;
#X connect 1 0 4 0;
#X connect 2 0 0 0;
#X connect 3 0 0 1;
#X connect 3 0 1 1;
#X connect 4 0 8 0;
#X connect 5 0 6 0;
#X connect 7 0 0 2;
#X connect 7 0 1 2;
#X connect 8 0 5 0;
#X restore 55 67 pd bandanalysis;
#N canvas 350 116 462 312 bandprocessing 0;
#X obj 144 82 bp~;
#X obj 143 119 bp~;
#X obj 126 22 inlet~;
#X obj 184 22 inlet;
#X obj 145 165 outlet~;
#X obj 204 52 r q;
#X connect 0 0 1 0;
#X connect 1 0 4 0;
#X connect 2 0 0 0;
#X connect 3 0 0 1;
#X connect 3 0 1 1;
#X connect 5 0 0 2;
#X connect 5 0 1 2;
#X restore 184 83 pd bandprocessing;
#X obj 141 175 throw~ sum;
#X obj 139 143 *~;
#X obj 72 118 dbtorms~;
#X obj 55 43 r~ soundfile;
#X obj 183 59 r~ synth;
#X obj 161 36 mtof;
#X obj 161 13 inlet;
#X connect 0 0 4 0;
#X connect 1 0 3 1;
#X connect 3 0 2 0;
#X connect 4 0 3 0;
#X connect 5 0 0 0;
#X connect 6 0 1 0;
#X connect 7 0 0 1;
#X connect 7 0 1 1;
#X connect 8 0 7 0;
#X restore 445 347 pd bandvocoder;
#X obj 445 309 loadbang;
#N canvas 0 22 466 316 bandvocoder 0;
#N canvas 0 22 470 320 bandanalysis 0;
#X obj 198 130 bp~;
#X obj 197 168 bp~;
#X obj 155 92 inlet~;
#X obj 217 74 inlet;
#X obj 199 192 env~ 1024;
#X obj 198 245 line~;
#X obj 197 272 outlet~;
#X obj 234 109 r q;
#X msg 198 220 \$1 23;
#X connect 0 0 1 0;
#X connect 1 0 4 0;
#X connect 2 0 0 0;
#X connect 3 0 0 1;
#X connect 3 0 1 1;
#X connect 4 0 8 0;
#X connect 5 0 6 0;
#X connect 7 0 0 2;
#X connect 7 0 1 2;
#X connect 8 0 5 0;
#X restore 55 67 pd bandanalysis;
#N canvas 350 116 462 312 bandprocessing 0;
#X obj 144 82 bp~;
#X obj 143 119 bp~;
#X obj 126 22 inlet~;
#X obj 184 22 inlet;
#X obj 145 165 outlet~;
#X obj 204 52 r q;
#X connect 0 0 1 0;
#X connect 1 0 4 0;
#X connect 2 0 0 0;
#X connect 3 0 0 1;
#X connect 3 0 1 1;
#X connect 5 0 0 2;
#X connect 5 0 1 2;
#X restore 184 83 pd bandprocessing;
#X obj 141 175 throw~ sum;
#X obj 139 143 *~;
#X obj 72 118 dbtorms~;
#X obj 55 43 r~ soundfile;
#X obj 183 59 r~ synth;
#X obj 161 36 mtof;
#X obj 161 13 inlet;
#X connect 0 0 4 0;
#X connect 1 0 3 1;
#X connect 3 0 2 0;
#X connect 4 0 3 0;
#X connect 5 0 0 0;
#X connect 6 0 1 0;
#X connect 7 0 0 1;
#X connect 7 0 1 1;
#X connect 8 0 7 0;
#X restore 549 347 pd bandvocoder;
#X obj 549 309 loadbang;
#N canvas 0 22 466 316 bandvocoder 0;
#N canvas 0 22 470 320 bandanalysis 0;
#X obj 198 130 bp~;
#X obj 197 168 bp~;
#X obj 155 92 inlet~;
#X obj 217 74 inlet;
#X obj 199 192 env~ 1024;
#X obj 198 245 line~;
#X obj 197 272 outlet~;
#X obj 234 109 r q;
#X msg 198 220 \$1 23;
#X connect 0 0 1 0;
#X connect 1 0 4 0;
#X connect 2 0 0 0;
#X connect 3 0 0 1;
#X connect 3 0 1 1;
#X connect 4 0 8 0;
#X connect 5 0 6 0;
#X connect 7 0 0 2;
#X connect 7 0 1 2;
#X connect 8 0 5 0;
#X restore 55 67 pd bandanalysis;
#N canvas 350 116 462 312 bandprocessing 0;
#X obj 144 82 bp~;
#X obj 143 119 bp~;
#X obj 126 22 inlet~;
#X obj 184 22 inlet;
#X obj 145 165 outlet~;
#X obj 204 52 r q;
#X connect 0 0 1 0;
#X connect 1 0 4 0;
#X connect 2 0 0 0;
#X connect 3 0 0 1;
#X connect 3 0 1 1;
#X connect 5 0 0 2;
#X connect 5 0 1 2;
#X restore 184 83 pd bandprocessing;
#X obj 141 175 throw~ sum;
#X obj 139 143 *~;
#X obj 72 118 dbtorms~;
#X obj 55 43 r~ soundfile;
#X obj 183 59 r~ synth;
#X obj 161 36 mtof;
#X obj 161 13 inlet;
#X connect 0 0 4 0;
#X connect 1 0 3 1;
#X connect 3 0 2 0;
#X connect 4 0 3 0;
#X connect 5 0 0 0;
#X connect 6 0 1 0;
#X connect 7 0 0 1;
#X connect 7 0 1 1;
#X connect 8 0 7 0;
#X restore 237 407 pd bandvocoder;
#X obj 237 369 loadbang;
#N canvas 0 22 466 316 bandvocoder 0;
#N canvas 0 22 470 320 bandanalysis 0;
#X obj 198 130 bp~;
#X obj 197 168 bp~;
#X obj 155 92 inlet~;
#X obj 217 74 inlet;
#X obj 199 192 env~ 1024;
#X obj 198 245 line~;
#X obj 197 272 outlet~;
#X obj 234 109 r q;
#X msg 198 220 \$1 23;
#X connect 0 0 1 0;
#X connect 1 0 4 0;
#X connect 2 0 0 0;
#X connect 3 0 0 1;
#X connect 3 0 1 1;
#X connect 4 0 8 0;
#X connect 5 0 6 0;
#X connect 7 0 0 2;
#X connect 7 0 1 2;
#X connect 8 0 5 0;
#X restore 55 67 pd bandanalysis;
#N canvas 350 116 462 312 bandprocessing 0;
#X obj 144 82 bp~;
#X obj 143 119 bp~;
#X obj 126 22 inlet~;
#X obj 184 22 inlet;
#X obj 145 165 outlet~;
#X obj 204 52 r q;
#X connect 0 0 1 0;
#X connect 1 0 4 0;
#X connect 2 0 0 0;
#X connect 3 0 0 1;
#X connect 3 0 1 1;
#X connect 5 0 0 2;
#X connect 5 0 1 2;
#X restore 184 83 pd bandprocessing;
#X obj 141 175 throw~ sum;
#X obj 139 143 *~;
#X obj 72 118 dbtorms~;
#X obj 55 43 r~ soundfile;
#X obj 183 59 r~ synth;
#X obj 161 36 mtof;
#X obj 161 13 inlet;
#X connect 0 0 4 0;
#X connect 1 0 3 1;
#X connect 3 0 2 0;
#X connect 4 0 3 0;
#X connect 5 0 0 0;
#X connect 6 0 1 0;
#X connect 7 0 0 1;
#X connect 7 0 1 1;
#X connect 8 0 7 0;
#X restore 341 407 pd bandvocoder;
#X obj 341 369 loadbang;
#N canvas 0 22 466 316 bandvocoder 0;
#N canvas 0 22 470 320 bandanalysis 0;
#X obj 198 130 bp~;
#X obj 197 168 bp~;
#X obj 155 92 inlet~;
#X obj 217 74 inlet;
#X obj 199 192 env~ 1024;
#X obj 198 245 line~;
#X obj 197 272 outlet~;
#X obj 234 109 r q;
#X msg 198 220 \$1 23;
#X connect 0 0 1 0;
#X connect 1 0 4 0;
#X connect 2 0 0 0;
#X connect 3 0 0 1;
#X connect 3 0 1 1;
#X connect 4 0 8 0;
#X connect 5 0 6 0;
#X connect 7 0 0 2;
#X connect 7 0 1 2;
#X connect 8 0 5 0;
#X restore 55 67 pd bandanalysis;
#N canvas 350 116 462 312 bandprocessing 0;
#X obj 144 82 bp~;
#X obj 143 119 bp~;
#X obj 126 22 inlet~;
#X obj 184 22 inlet;
#X obj 145 165 outlet~;
#X obj 204 52 r q;
#X connect 0 0 1 0;
#X connect 1 0 4 0;
#X connect 2 0 0 0;
#X connect 3 0 0 1;
#X connect 3 0 1 1;
#X connect 5 0 0 2;
#X connect 5 0 1 2;
#X restore 184 83 pd bandprocessing;
#X obj 141 175 throw~ sum;
#X obj 139 143 *~;
#X obj 72 118 dbtorms~;
#X obj 55 43 r~ soundfile;
#X obj 183 59 r~ synth;
#X obj 161 36 mtof;
#X obj 161 13 inlet;
#X connect 0 0 4 0;
#X connect 1 0 3 1;
#X connect 3 0 2 0;
#X connect 4 0 3 0;
#X connect 5 0 0 0;
#X connect 6 0 1 0;
#X connect 7 0 0 1;
#X connect 7 0 1 1;
#X connect 8 0 7 0;
#X restore 444 407 pd bandvocoder;
#X obj 444 369 loadbang;
#N canvas 0 22 466 316 bandvocoder 0;
#N canvas 0 22 470 320 bandanalysis 0;
#X obj 198 130 bp~;
#X obj 197 168 bp~;
#X obj 155 92 inlet~;
#X obj 217 74 inlet;
#X obj 199 192 env~ 1024;
#X obj 198 245 line~;
#X obj 197 272 outlet~;
#X obj 234 109 r q;
#X msg 198 220 \$1 23;
#X connect 0 0 1 0;
#X connect 1 0 4 0;
#X connect 2 0 0 0;
#X connect 3 0 0 1;
#X connect 3 0 1 1;
#X connect 4 0 8 0;
#X connect 5 0 6 0;
#X connect 7 0 0 2;
#X connect 7 0 1 2;
#X connect 8 0 5 0;
#X restore 55 67 pd bandanalysis;
#N canvas 350 116 462 312 bandprocessing 0;
#X obj 144 82 bp~;
#X obj 143 119 bp~;
#X obj 126 22 inlet~;
#X obj 184 22 inlet;
#X obj 145 165 outlet~;
#X obj 204 52 r q;
#X connect 0 0 1 0;
#X connect 1 0 4 0;
#X connect 2 0 0 0;
#X connect 3 0 0 1;
#X connect 3 0 1 1;
#X connect 5 0 0 2;
#X connect 5 0 1 2;
#X restore 184 83 pd bandprocessing;
#X obj 141 175 throw~ sum;
#X obj 139 143 *~;
#X obj 72 118 dbtorms~;
#X obj 55 43 r~ soundfile;
#X obj 183 59 r~ synth;
#X obj 161 36 mtof;
#X obj 161 13 inlet;
#X connect 0 0 4 0;
#X connect 1 0 3 1;
#X connect 3 0 2 0;
#X connect 4 0 3 0;
#X connect 5 0 0 0;
#X connect 6 0 1 0;
#X connect 7 0 0 1;
#X connect 7 0 1 1;
#X connect 8 0 7 0;
#X restore 548 407 pd bandvocoder;
#X obj 548 369 loadbang;
#N canvas 0 22 466 316 bandvocoder 0;
#N canvas 0 22 470 320 bandanalysis 0;
#X obj 198 130 bp~;
#X obj 197 168 bp~;
#X obj 155 92 inlet~;
#X obj 217 74 inlet;
#X obj 199 192 env~ 1024;
#X obj 198 245 line~;
#X obj 197 272 outlet~;
#X obj 234 109 r q;
#X msg 198 220 \$1 23;
#X connect 0 0 1 0;
#X connect 1 0 4 0;
#X connect 2 0 0 0;
#X connect 3 0 0 1;
#X connect 3 0 1 1;
#X connect 4 0 8 0;
#X connect 5 0 6 0;
#X connect 7 0 0 2;
#X connect 7 0 1 2;
#X connect 8 0 5 0;
#X restore 55 67 pd bandanalysis;
#N canvas 350 116 462 312 bandprocessing 0;
#X obj 144 82 bp~;
#X obj 143 119 bp~;
#X obj 126 22 inlet~;
#X obj 184 22 inlet;
#X obj 145 165 outlet~;
#X obj 204 52 r q;
#X connect 0 0 1 0;
#X connect 1 0 4 0;
#X connect 2 0 0 0;
#X connect 3 0 0 1;
#X connect 3 0 1 1;
#X connect 5 0 0 2;
#X connect 5 0 1 2;
#X restore 184 83 pd bandprocessing;
#X obj 141 175 throw~ sum;
#X obj 139 143 *~;
#X obj 72 118 dbtorms~;
#X obj 55 43 r~ soundfile;
#X obj 183 59 r~ synth;
#X obj 161 36 mtof;
#X obj 161 13 inlet;
#X connect 0 0 4 0;
#X connect 1 0 3 1;
#X connect 3 0 2 0;
#X connect 4 0 3 0;
#X connect 5 0 0 0;
#X connect 6 0 1 0;
#X connect 7 0 0 1;
#X connect 7 0 1 1;
#X connect 8 0 7 0;
#X restore 238 465 pd bandvocoder;
#X obj 238 427 loadbang;
#N canvas 0 22 466 316 bandvocoder 0;
#N canvas 0 22 470 320 bandanalysis 0;
#X obj 198 130 bp~;
#X obj 197 168 bp~;
#X obj 155 92 inlet~;
#X obj 217 74 inlet;
#X obj 199 192 env~ 1024;
#X obj 198 245 line~;
#X obj 197 272 outlet~;
#X obj 234 109 r q;
#X msg 198 220 \$1 23;
#X connect 0 0 1 0;
#X connect 1 0 4 0;
#X connect 2 0 0 0;
#X connect 3 0 0 1;
#X connect 3 0 1 1;
#X connect 4 0 8 0;
#X connect 5 0 6 0;
#X connect 7 0 0 2;
#X connect 7 0 1 2;
#X connect 8 0 5 0;
#X restore 55 67 pd bandanalysis;
#N canvas 350 116 462 312 bandprocessing 0;
#X obj 144 82 bp~;
#X obj 143 119 bp~;
#X obj 126 22 inlet~;
#X obj 184 22 inlet;
#X obj 145 165 outlet~;
#X obj 204 52 r q;
#X connect 0 0 1 0;
#X connect 1 0 4 0;
#X connect 2 0 0 0;
#X connect 3 0 0 1;
#X connect 3 0 1 1;
#X connect 5 0 0 2;
#X connect 5 0 1 2;
#X restore 184 83 pd bandprocessing;
#X obj 141 175 throw~ sum;
#X obj 139 143 *~;
#X obj 72 118 dbtorms~;
#X obj 55 43 r~ soundfile;
#X obj 183 59 r~ synth;
#X obj 161 36 mtof;
#X obj 161 13 inlet;
#X connect 0 0 4 0;
#X connect 1 0 3 1;
#X connect 3 0 2 0;
#X connect 4 0 3 0;
#X connect 5 0 0 0;
#X connect 6 0 1 0;
#X connect 7 0 0 1;
#X connect 7 0 1 1;
#X connect 8 0 7 0;
#X restore 342 465 pd bandvocoder;
#X obj 342 427 loadbang;
#N canvas 0 22 466 316 bandvocoder 0;
#N canvas 0 22 470 320 bandanalysis 0;
#X obj 198 130 bp~;
#X obj 197 168 bp~;
#X obj 155 92 inlet~;
#X obj 217 74 inlet;
#X obj 199 192 env~ 1024;
#X obj 198 245 line~;
#X obj 197 272 outlet~;
#X obj 234 109 r q;
#X msg 198 220 \$1 23;
#X connect 0 0 1 0;
#X connect 1 0 4 0;
#X connect 2 0 0 0;
#X connect 3 0 0 1;
#X connect 3 0 1 1;
#X connect 4 0 8 0;
#X connect 5 0 6 0;
#X connect 7 0 0 2;
#X connect 7 0 1 2;
#X connect 8 0 5 0;
#X restore 55 67 pd bandanalysis;
#N canvas 350 116 462 312 bandprocessing 0;
#X obj 144 82 bp~;
#X obj 143 119 bp~;
#X obj 126 22 inlet~;
#X obj 184 22 inlet;
#X obj 145 165 outlet~;
#X obj 204 52 r q;
#X connect 0 0 1 0;
#X connect 1 0 4 0;
#X connect 2 0 0 0;
#X connect 3 0 0 1;
#X connect 3 0 1 1;
#X connect 5 0 0 2;
#X connect 5 0 1 2;
#X restore 184 83 pd bandprocessing;
#X obj 141 175 throw~ sum;
#X obj 139 143 *~;
#X obj 72 118 dbtorms~;
#X obj 55 43 r~ soundfile;
#X obj 183 59 r~ synth;
#X obj 161 36 mtof;
#X obj 161 13 inlet;
#X connect 0 0 4 0;
#X connect 1 0 3 1;
#X connect 3 0 2 0;
#X connect 4 0 3 0;
#X connect 5 0 0 0;
#X connect 6 0 1 0;
#X connect 7 0 0 1;
#X connect 7 0 1 1;
#X connect 8 0 7 0;
#X restore 445 465 pd bandvocoder;
#X obj 445 427 loadbang;
#N canvas 0 22 466 316 bandvocoder 0;
#N canvas 0 22 470 320 bandanalysis 0;
#X obj 198 130 bp~;
#X obj 197 168 bp~;
#X obj 155 92 inlet~;
#X obj 217 74 inlet;
#X obj 199 192 env~ 1024;
#X obj 198 245 line~;
#X obj 197 272 outlet~;
#X obj 234 109 r q;
#X msg 198 220 \$1 23;
#X connect 0 0 1 0;
#X connect 1 0 4 0;
#X connect 2 0 0 0;
#X connect 3 0 0 1;
#X connect 3 0 1 1;
#X connect 4 0 8 0;
#X connect 5 0 6 0;
#X connect 7 0 0 2;
#X connect 7 0 1 2;
#X connect 8 0 5 0;
#X restore 55 67 pd bandanalysis;
#N canvas 350 116 462 312 bandprocessing 0;
#X obj 144 82 bp~;
#X obj 143 119 bp~;
#X obj 126 22 inlet~;
#X obj 184 22 inlet;
#X obj 145 165 outlet~;
#X obj 204 52 r q;
#X connect 0 0 1 0;
#X connect 1 0 4 0;
#X connect 2 0 0 0;
#X connect 3 0 0 1;
#X connect 3 0 1 1;
#X connect 5 0 0 2;
#X connect 5 0 1 2;
#X restore 184 83 pd bandprocessing;
#X obj 141 175 throw~ sum;
#X obj 139 143 *~;
#X obj 72 118 dbtorms~;
#X obj 55 43 r~ soundfile;
#X obj 183 59 r~ synth;
#X obj 161 36 mtof;
#X obj 161 13 inlet;
#X connect 0 0 4 0;
#X connect 1 0 3 1;
#X connect 3 0 2 0;
#X connect 4 0 3 0;
#X connect 5 0 0 0;
#X connect 6 0 1 0;
#X connect 7 0 0 1;
#X connect 7 0 1 1;
#X connect 8 0 7 0;
#X restore 549 465 pd bandvocoder;
#X obj 549 427 loadbang;
#N canvas 0 22 466 316 bandvocoder 0;
#N canvas 0 22 470 320 bandanalysis 0;
#X obj 198 130 bp~;
#X obj 197 168 bp~;
#X obj 155 92 inlet~;
#X obj 217 74 inlet;
#X obj 199 192 env~ 1024;
#X obj 198 245 line~;
#X obj 197 272 outlet~;
#X obj 234 109 r q;
#X msg 198 220 \$1 23;
#X connect 0 0 1 0;
#X connect 1 0 4 0;
#X connect 2 0 0 0;
#X connect 3 0 0 1;
#X connect 3 0 1 1;
#X connect 4 0 8 0;
#X connect 5 0 6 0;
#X connect 7 0 0 2;
#X connect 7 0 1 2;
#X connect 8 0 5 0;
#X restore 55 67 pd bandanalysis;
#N canvas 350 116 462 312 bandprocessing 0;
#X obj 144 82 bp~;
#X obj 143 119 bp~;
#X obj 126 22 inlet~;
#X obj 184 22 inlet;
#X obj 145 165 outlet~;
#X obj 204 52 r q;
#X connect 0 0 1 0;
#X connect 1 0 4 0;
#X connect 2 0 0 0;
#X connect 3 0 0 1;
#X connect 3 0 1 1;
#X connect 5 0 0 2;
#X connect 5 0 1 2;
#X restore 184 83 pd bandprocessing;
#X obj 141 175 throw~ sum;
#X obj 139 143 *~;
#X obj 72 118 dbtorms~;
#X obj 55 43 r~ soundfile;
#X obj 183 59 r~ synth;
#X obj 161 36 mtof;
#X obj 161 13 inlet;
#X connect 0 0 4 0;
#X connect 1 0 3 1;
#X connect 3 0 2 0;
#X connect 4 0 3 0;
#X connect 5 0 0 0;
#X connect 6 0 1 0;
#X connect 7 0 0 1;
#X connect 7 0 1 1;
#X connect 8 0 7 0;
#X restore 237 525 pd bandvocoder;
#X obj 237 487 loadbang;
#N canvas 0 22 466 316 bandvocoder 0;
#N canvas 0 22 470 320 bandanalysis 0;
#X obj 198 130 bp~;
#X obj 197 168 bp~;
#X obj 155 92 inlet~;
#X obj 217 74 inlet;
#X obj 199 192 env~ 1024;
#X obj 198 245 line~;
#X obj 197 272 outlet~;
#X obj 234 109 r q;
#X msg 198 220 \$1 23;
#X connect 0 0 1 0;
#X connect 1 0 4 0;
#X connect 2 0 0 0;
#X connect 3 0 0 1;
#X connect 3 0 1 1;
#X connect 4 0 8 0;
#X connect 5 0 6 0;
#X connect 7 0 0 2;
#X connect 7 0 1 2;
#X connect 8 0 5 0;
#X restore 55 67 pd bandanalysis;
#N canvas 350 116 462 312 bandprocessing 0;
#X obj 144 82 bp~;
#X obj 143 119 bp~;
#X obj 126 22 inlet~;
#X obj 184 22 inlet;
#X obj 145 165 outlet~;
#X obj 204 52 r q;
#X connect 0 0 1 0;
#X connect 1 0 4 0;
#X connect 2 0 0 0;
#X connect 3 0 0 1;
#X connect 3 0 1 1;
#X connect 5 0 0 2;
#X connect 5 0 1 2;
#X restore 184 83 pd bandprocessing;
#X obj 141 175 throw~ sum;
#X obj 139 143 *~;
#X obj 72 118 dbtorms~;
#X obj 55 43 r~ soundfile;
#X obj 183 59 r~ synth;
#X obj 161 36 mtof;
#X obj 161 13 inlet;
#X connect 0 0 4 0;
#X connect 1 0 3 1;
#X connect 3 0 2 0;
#X connect 4 0 3 0;
#X connect 5 0 0 0;
#X connect 6 0 1 0;
#X connect 7 0 0 1;
#X connect 7 0 1 1;
#X connect 8 0 7 0;
#X restore 341 525 pd bandvocoder;
#X obj 341 487 loadbang;
#N canvas 0 22 466 316 bandvocoder 0;
#N canvas 0 22 470 320 bandanalysis 0;
#X obj 198 130 bp~;
#X obj 197 168 bp~;
#X obj 155 92 inlet~;
#X obj 217 74 inlet;
#X obj 199 192 env~ 1024;
#X obj 198 245 line~;
#X obj 197 272 outlet~;
#X obj 234 109 r q;
#X msg 198 220 \$1 23;
#X connect 0 0 1 0;
#X connect 1 0 4 0;
#X connect 2 0 0 0;
#X connect 3 0 0 1;
#X connect 3 0 1 1;
#X connect 4 0 8 0;
#X connect 5 0 6 0;
#X connect 7 0 0 2;
#X connect 7 0 1 2;
#X connect 8 0 5 0;
#X restore 55 67 pd bandanalysis;
#N canvas 350 116 462 312 bandprocessing 0;
#X obj 144 82 bp~;
#X obj 143 119 bp~;
#X obj 126 22 inlet~;
#X obj 184 22 inlet;
#X obj 145 165 outlet~;
#X obj 204 52 r q;
#X connect 0 0 1 0;
#X connect 1 0 4 0;
#X connect 2 0 0 0;
#X connect 3 0 0 1;
#X connect 3 0 1 1;
#X connect 5 0 0 2;
#X connect 5 0 1 2;
#X restore 184 83 pd bandprocessing;
#X obj 141 175 throw~ sum;
#X obj 139 143 *~;
#X obj 72 118 dbtorms~;
#X obj 55 43 r~ soundfile;
#X obj 183 59 r~ synth;
#X obj 161 36 mtof;
#X obj 161 13 inlet;
#X connect 0 0 4 0;
#X connect 1 0 3 1;
#X connect 3 0 2 0;
#X connect 4 0 3 0;
#X connect 5 0 0 0;
#X connect 6 0 1 0;
#X connect 7 0 0 1;
#X connect 7 0 1 1;
#X connect 8 0 7 0;
#X restore 444 525 pd bandvocoder;
#X obj 444 487 loadbang;
#N canvas 0 22 466 316 bandvocoder 0;
#N canvas 0 22 470 320 bandanalysis 0;
#X obj 198 130 bp~;
#X obj 197 168 bp~;
#X obj 155 92 inlet~;
#X obj 217 74 inlet;
#X obj 199 192 env~ 1024;
#X obj 198 245 line~;
#X obj 197 272 outlet~;
#X obj 234 109 r q;
#X msg 198 220 \$1 23;
#X connect 0 0 1 0;
#X connect 1 0 4 0;
#X connect 2 0 0 0;
#X connect 3 0 0 1;
#X connect 3 0 1 1;
#X connect 4 0 8 0;
#X connect 5 0 6 0;
#X connect 7 0 0 2;
#X connect 7 0 1 2;
#X connect 8 0 5 0;
#X restore 55 67 pd bandanalysis;
#N canvas 350 116 462 312 bandprocessing 0;
#X obj 144 82 bp~;
#X obj 143 119 bp~;
#X obj 126 22 inlet~;
#X obj 184 22 inlet;
#X obj 145 165 outlet~;
#X obj 204 52 r q;
#X connect 0 0 1 0;
#X connect 1 0 4 0;
#X connect 2 0 0 0;
#X connect 3 0 0 1;
#X connect 3 0 1 1;
#X connect 5 0 0 2;
#X connect 5 0 1 2;
#X restore 184 83 pd bandprocessing;
#X obj 141 175 throw~ sum;
#X obj 139 143 *~;
#X obj 72 118 dbtorms~;
#X obj 55 43 r~ soundfile;
#X obj 183 59 r~ synth;
#X obj 161 36 mtof;
#X obj 161 13 inlet;
#X connect 0 0 4 0;
#X connect 1 0 3 1;
#X connect 3 0 2 0;
#X connect 4 0 3 0;
#X connect 5 0 0 0;
#X connect 6 0 1 0;
#X connect 7 0 0 1;
#X connect 7 0 1 1;
#X connect 8 0 7 0;
#X restore 548 525 pd bandvocoder;
#X obj 548 487 loadbang;
#X msg 239 268 36;
#X msg 238 328 48;
#X msg 237 388 60;
#X msg 238 446 72;
#X msg 237 506 84;
#X msg 344 208 27;
#X msg 447 208 30;
#X msg 551 208 33;
#X msg 343 268 39;
#X msg 446 268 42;
#X msg 550 268 45;
#X msg 342 328 51;
#X msg 445 328 54;
#X msg 549 328 57;
#X msg 341 388 63;
#X msg 444 388 66;
#X msg 548 388 69;
#X msg 342 446 75;
#X msg 445 446 78;
#X msg 549 446 81;
#X obj 46 537 *~;
#X floatatom 85 446 5 0 0 2 vocoder_q vocoder_q q;
#X floatatom 134 510 5 0 0 2 out_gain out_gain -;
#X obj 269 70 phasor~;
#X obj 269 49 mtof;
#X floatatom 269 22 5 0 0 2 ramp_note ramp_note -;
#X msg 38 212 \; ramp_note 30 \; vocoder_q 50 \; out_gain 200;
#X msg 39 276 \; ramp_note 45 \; vocoder_q 25 \; out_gain 100;
#X text 31 635 channel vocoder cross synthesis with high q filters
;
#X obj 73 139 readsf~;
#X obj 73 165 s~ soundfile;
#X msg 80 106 open \$1;
#X obj 105 53 openpanel;
#X obj 104 16 bng 15 250 50 0 empty empty load_soundfile 17 7 0 10
-262144 -1 -1;
#X obj 80 85 symbol;
#X obj 21 67 t b b;
#X msg 24 106 1;
#X obj 22 15 bng 15 250 50 0 empty empty play 17 7 0 10 -262144 -1
-1;
#X obj 418 59 noise~;
#X msg 341 506 87;
#X msg 444 506 90;
#X msg 548 506 93;
#X obj 392 102 *~;
#X obj 370 59 - 1;
#X obj 371 79 * -1;
#X obj 355 36 tgl 15 0 empty empty empty 17 7 0 10 -262144 -1 -1 0
1;
#X obj 336 101 *~;
#N canvas 0 22 466 316 bandvocoder 0;
#N canvas 0 22 470 320 bandanalysis 0;
#X obj 198 130 bp~;
#X obj 197 168 bp~;
#X obj 155 92 inlet~;
#X obj 217 74 inlet;
#X obj 199 192 env~ 1024;
#X obj 198 245 line~;
#X obj 197 272 outlet~;
#X obj 234 109 r q;
#X msg 198 220 \$1 23;
#X connect 0 0 1 0;
#X connect 1 0 4 0;
#X connect 2 0 0 0;
#X connect 3 0 0 1;
#X connect 3 0 1 1;
#X connect 4 0 8 0;
#X connect 5 0 6 0;
#X connect 7 0 0 2;
#X connect 7 0 1 2;
#X connect 8 0 5 0;
#X restore 55 67 pd bandanalysis;
#N canvas 350 116 462 312 bandprocessing 0;
#X obj 144 82 bp~;
#X obj 143 119 bp~;
#X obj 126 22 inlet~;
#X obj 184 22 inlet;
#X obj 145 165 outlet~;
#X obj 204 52 r q;
#X connect 0 0 1 0;
#X connect 1 0 4 0;
#X connect 2 0 0 0;
#X connect 3 0 0 1;
#X connect 3 0 1 1;
#X connect 5 0 0 2;
#X connect 5 0 1 2;
#X restore 184 83 pd bandprocessing;
#X obj 141 175 throw~ sum;
#X obj 139 143 *~;
#X obj 72 118 dbtorms~;
#X obj 55 43 r~ soundfile;
#X obj 183 59 r~ synth;
#X obj 161 36 mtof;
#X obj 161 13 inlet;
#X connect 0 0 4 0;
#X connect 1 0 3 1;
#X connect 3 0 2 0;
#X connect 4 0 3 0;
#X connect 5 0 0 0;
#X connect 6 0 1 0;
#X connect 7 0 0 1;
#X connect 7 0 1 1;
#X connect 8 0 7 0;
#X restore 236 589 pd bandvocoder;
#X obj 236 551 loadbang;
#N canvas 0 22 466 316 bandvocoder 0;
#N canvas 0 22 470 320 bandanalysis 0;
#X obj 198 130 bp~;
#X obj 197 168 bp~;
#X obj 155 92 inlet~;
#X obj 217 74 inlet;
#X obj 199 192 env~ 1024;
#X obj 198 245 line~;
#X obj 197 272 outlet~;
#X obj 234 109 r q;
#X msg 198 220 \$1 23;
#X connect 0 0 1 0;
#X connect 1 0 4 0;
#X connect 2 0 0 0;
#X connect 3 0 0 1;
#X connect 3 0 1 1;
#X connect 4 0 8 0;
#X connect 5 0 6 0;
#X connect 7 0 0 2;
#X connect 7 0 1 2;
#X connect 8 0 5 0;
#X restore 55 67 pd bandanalysis;
#N canvas 350 116 462 312 bandprocessing 0;
#X obj 144 82 bp~;
#X obj 143 119 bp~;
#X obj 126 22 inlet~;
#X obj 184 22 inlet;
#X obj 145 165 outlet~;
#X obj 204 52 r q;
#X connect 0 0 1 0;
#X connect 1 0 4 0;
#X connect 2 0 0 0;
#X connect 3 0 0 1;
#X connect 3 0 1 1;
#X connect 5 0 0 2;
#X connect 5 0 1 2;
#X restore 184 83 pd bandprocessing;
#X obj 141 175 throw~ sum;
#X obj 139 143 *~;
#X obj 72 118 dbtorms~;
#X obj 55 43 r~ soundfile;
#X obj 183 59 r~ synth;
#X obj 161 36 mtof;
#X obj 161 13 inlet;
#X connect 0 0 4 0;
#X connect 1 0 3 1;
#X connect 3 0 2 0;
#X connect 4 0 3 0;
#X connect 5 0 0 0;
#X connect 6 0 1 0;
#X connect 7 0 0 1;
#X connect 7 0 1 1;
#X connect 8 0 7 0;
#X restore 340 589 pd bandvocoder;
#X obj 340 551 loadbang;
#N canvas 0 22 466 316 bandvocoder 0;
#N canvas 0 22 470 320 bandanalysis 0;
#X obj 198 130 bp~;
#X obj 197 168 bp~;
#X obj 155 92 inlet~;
#X obj 217 74 inlet;
#X obj 199 192 env~ 1024;
#X obj 198 245 line~;
#X obj 197 272 outlet~;
#X obj 234 109 r q;
#X msg 198 220 \$1 23;
#X connect 0 0 1 0;
#X connect 1 0 4 0;
#X connect 2 0 0 0;
#X connect 3 0 0 1;
#X connect 3 0 1 1;
#X connect 4 0 8 0;
#X connect 5 0 6 0;
#X connect 7 0 0 2;
#X connect 7 0 1 2;
#X connect 8 0 5 0;
#X restore 55 67 pd bandanalysis;
#N canvas 350 116 462 312 bandprocessing 0;
#X obj 144 82 bp~;
#X obj 143 119 bp~;
#X obj 126 22 inlet~;
#X obj 184 22 inlet;
#X obj 145 165 outlet~;
#X obj 204 52 r q;
#X connect 0 0 1 0;
#X connect 1 0 4 0;
#X connect 2 0 0 0;
#X connect 3 0 0 1;
#X connect 3 0 1 1;
#X connect 5 0 0 2;
#X connect 5 0 1 2;
#X restore 184 83 pd bandprocessing;
#X obj 141 175 throw~ sum;
#X obj 139 143 *~;
#X obj 72 118 dbtorms~;
#X obj 55 43 r~ soundfile;
#X obj 183 59 r~ synth;
#X obj 161 36 mtof;
#X obj 161 13 inlet;
#X connect 0 0 4 0;
#X connect 1 0 3 1;
#X connect 3 0 2 0;
#X connect 4 0 3 0;
#X connect 5 0 0 0;
#X connect 6 0 1 0;
#X connect 7 0 0 1;
#X connect 7 0 1 1;
#X connect 8 0 7 0;
#X restore 443 589 pd bandvocoder;
#X obj 443 551 loadbang;
#N canvas 0 22 466 316 bandvocoder 0;
#N canvas 0 22 470 320 bandanalysis 0;
#X obj 198 130 bp~;
#X obj 197 168 bp~;
#X obj 155 92 inlet~;
#X obj 217 74 inlet;
#X obj 199 192 env~ 1024;
#X obj 198 245 line~;
#X obj 197 272 outlet~;
#X obj 234 109 r q;
#X msg 198 220 \$1 23;
#X connect 0 0 1 0;
#X connect 1 0 4 0;
#X connect 2 0 0 0;
#X connect 3 0 0 1;
#X connect 3 0 1 1;
#X connect 4 0 8 0;
#X connect 5 0 6 0;
#X connect 7 0 0 2;
#X connect 7 0 1 2;
#X connect 8 0 5 0;
#X restore 55 67 pd bandanalysis;
#N canvas 350 116 462 312 bandprocessing 0;
#X obj 144 82 bp~;
#X obj 143 119 bp~;
#X obj 126 22 inlet~;
#X obj 184 22 inlet;
#X obj 145 165 outlet~;
#X obj 204 52 r q;
#X connect 0 0 1 0;
#X connect 1 0 4 0;
#X connect 2 0 0 0;
#X connect 3 0 0 1;
#X connect 3 0 1 1;
#X connect 5 0 0 2;
#X connect 5 0 1 2;
#X restore 184 83 pd bandprocessing;
#X obj 141 175 throw~ sum;
#X obj 139 143 *~;
#X obj 72 118 dbtorms~;
#X obj 55 43 r~ soundfile;
#X obj 183 59 r~ synth;
#X obj 161 36 mtof;
#X obj 161 13 inlet;
#X connect 0 0 4 0;
#X connect 1 0 3 1;
#X connect 3 0 2 0;
#X connect 4 0 3 0;
#X connect 5 0 0 0;
#X connect 6 0 1 0;
#X connect 7 0 0 1;
#X connect 7 0 1 1;
#X connect 8 0 7 0;
#X restore 547 589 pd bandvocoder;
#X obj 547 551 loadbang;
#X msg 236 570 96;
#X msg 340 570 99;
#X msg 443 570 102;
#X msg 547 570 105;
#X msg 43 348 \; ramp_note 25 \; vocoder_q 100 \; out_gain 200;
#X connect 0 0 72 0;
#X connect 4 0 2 0;
#X connect 5 0 4 0;
#X connect 7 0 57 0;
#X connect 9 0 58 0;
#X connect 11 0 59 0;
#X connect 13 0 52 0;
#X connect 15 0 60 0;
#X connect 17 0 61 0;
#X connect 19 0 62 0;
#X connect 21 0 53 0;
#X connect 23 0 63 0;
#X connect 25 0 64 0;
#X connect 27 0 65 0;
#X connect 29 0 54 0;
#X connect 31 0 66 0;
#X connect 33 0 67 0;
#X connect 35 0 68 0;
#X connect 37 0 55 0;
#X connect 39 0 69 0;
#X connect 41 0 70 0;
#X connect 43 0 71 0;
#X connect 45 0 56 0;
#X connect 47 0 91 0;
#X connect 49 0 92 0;
#X connect 51 0 93 0;
#X connect 52 0 12 0;
#X connect 53 0 20 0;
#X connect 54 0 28 0;
#X connect 55 0 36 0;
#X connect 56 0 44 0;
#X connect 57 0 6 0;
#X connect 58 0 8 0;
#X connect 59 0 10 0;
#X connect 60 0 14 0;
#X connect 61 0 16 0;
#X connect 62 0 18 0;
#X connect 63 0 22 0;
#X connect 64 0 24 0;
#X connect 65 0 26 0;
#X connect 66 0 30 0;
#X connect 67 0 32 0;
#X connect 68 0 34 0;
#X connect 69 0 38 0;
#X connect 70 0 40 0;
#X connect 71 0 42 0;
#X connect 72 0 1 0;
#X connect 72 0 1 1;
#X connect 74 0 72 1;
#X connect 75 0 98 0;
#X connect 76 0 75 0;
#X connect 77 0 76 0;
#X connect 81 0 82 0;
#X connect 83 0 81 0;
#X connect 84 0 86 1;
#X connect 85 0 84 0;
#X connect 86 0 83 0;
#X connect 87 0 88 0;
#X connect 87 1 86 0;
#X connect 88 0 81 0;
#X connect 89 0 87 0;
#X connect 90 0 94 1;
#X connect 91 0 46 0;
#X connect 92 0 48 0;
#X connect 93 0 50 0;
#X connect 94 0 3 0;
#X connect 95 0 96 0;
#X connect 96 0 94 0;
#X connect 97 0 95 0;
#X connect 97 0 98 1;
#X connect 98 0 3 0;
#X connect 100 0 107 0;
#X connect 102 0 108 0;
#X connect 104 0 109 0;
#X connect 106 0 110 0;
#X connect 107 0 99 0;
#X connect 108 0 101 0;
#X connect 109 0 103 0;
#X connect 110 0 105 0;
